<?xml version="1.0" encoding="UTF-8" standalone="no"?>
<!-- Created with Inkscape (http://www.inkscape.org/) -->

<svg
   version="1.1"
   id="svg1"
   viewBox="0 0 1080 1080"
   xmlns="http://www.w3.org/2000/svg"
   xmlns:svg="http://www.w3.org/2000/svg">
  <defs
     id="defs1" />
  <g
     id="g1">
    <path
       d="m 73,994.42849 v -12.5715 l 5.25,0.3215 5.25,0.32151 0.316422,-2.75 0.316423,-2.75 H 78.566422 73 V 540 103 h 5 5 V 100.5 98 H 78 73 V 85.5 73 H 85.571505 98.143011 L 97.821505,78.25 97.5,83.5 l 2.75,0.316422 2.75,0.316423 V 78.566422 73 h 437 437 v 5 5 h 2.5 2.5 v -5 -5 h 12.5 12.5 V 85.571505 98.143011 L 1001.75,97.821505 996.5,97.5 l -0.31642,2.75 -0.31642,2.75 h 5.56644 5.5664 v 437 437 h -5 -5 v 2.5 2.5 h 5 5 v 12.5 12.5 h -12.57151 -12.5715 l 0.3215,-5.25 0.32151,-5.25 -2.75,-0.31642 -2.75,-0.31642 V 1001.4336 1007 H 540 103 v -5 -5 H 100.5 98 v 5 5 H 85.5 73 Z M 93,999.5 V 997 H 88.554791 84.109582 L 83.804791,992.25 83.5,987.5 H 81 78.5 l -0.29381,7.25 -0.293809,7.25 H 85.45619 93 Z m 878.81642,-0.75 0.31642,-2.75 H 955.06642 938 v -2 -2 h 16.94521 16.94521 l 0.30479,-4.75 0.30479,-4.75 5,-0.5 5,-0.5 0.30493,-4.19745 0.30493,-4.19745 4.69507,-0.30255 L 992.5,972.5 992.77361,955.25 993.04723,938 H 995 h 1.95277 l 0.27362,17.25 0.27361,17.25 h 2 2 v -432 -432 l -2.75,-0.31642 -2.75,-0.31642 V 124.93358 142 h -2 -2 v -16.94521 -16.94521 l -4.75,-0.30479 -4.75,-0.30479 -0.5,-5 -0.5,-5 -4.19745,-0.30493 -4.19745,-0.30493 -0.30255,-4.69507 L 972.5,87.5 955.25,87.226386 938,86.952772 V 85 83.047228 L 955.25,82.773614 972.5,82.5 v -2 -2 h -432 -432 l -0.31642,2.75 -0.31642,2.75 H 124.93358 142 v 2 2 h -16.94521 -16.94521 l -0.30479,4.75 -0.30479,4.75 -5,0.5 -5,0.5 -0.30493,4.19745 -0.30493,4.19745 -4.69507,0.30255 L 87.5,107.5 87.226386,124.75 86.952772,142 H 85 83.047228 L 82.773614,124.75 82.5,107.5 h -2 -2 v 432 432 l 2.75,0.31642 2.75,0.31642 V 955.06642 938 h 2 2 v 16.94521 16.94521 l 4.75,0.30479 4.75,0.30479 0.5,5 0.5,5 4.19745,0.30493 4.19745,0.30493 0.30255,4.69507 0.30255,4.69507 17.25,0.27361 17.25,0.27362 V 995.02361 997 h -16.94098 -16.94099 l -0.64763,1.04789 -0.64763,1.04788 0.55767,1.45323 0.55767,1.4533 431.78095,-0.2512 L 971.5,1001.5 Z M 1002,994.5 V 987 h -2.5 -2.5 v 4.5 4.5 h -4.53138 -4.53139 l -0.5756,1.5 -0.57561,1.5 0.57561,1.5 0.5756,1.5 H 994.96862 1002 Z M 93,990 v -3 H 90.5 88 v 2.33333 C 88,992.1453 88.738148,993 91.166667,993 H 93 Z m 9.81642,-0.25 0.31642,-2.75 H 100.56642 98 v 3.06955 3.06955 l 2.25,-0.31955 L 102.5,992.5 Z M 982.5,989.5 v -2 l -2.75,-0.31642 -2.75,-0.31642 v 2.63284 2.63284 l 2.75,-0.31642 2.75,-0.31642 z m 10.31955,-0.25 0.31955,-2.25 H 990.06955 987 v 2.56642 2.56642 l 2.75,-0.31642 L 992.5,991.5 Z M 92.816422,979.74145 93.132845,977 H 90.566422 88 v 2.33333 c 0,2.8117 0.877386,3.83519 2.951236,3.44269 L 92.5,982.4829 Z M 992.81955,979.75 992.5,977.5 989.75,977.18358 987,976.86716 V 979.43358 982 h 3.06955 3.06955 z M 93,100.5 V 98 h -3 -3 v 1.833333 C 87,102.26185 87.854698,103 90.666667,103 H 93 Z M 991.81642,100.25 991.5,97.5 h -2 -2 l -0.31642,2.75 -0.31642,2.75 H 989.5 992.13284 Z M 83,88.554791 V 84.109582 L 87.75,83.804791 92.5,83.5 V 81 78.5 L 85.25,78.20619 78,77.912381 V 85.45619 93 h 2.5 2.5 z m 10,1.878787 V 87.867155 L 90.25,88.183578 87.5,88.5 87.180449,90.75 86.860898,93 H 89.930449 93 Z M 103,90.5 V 88 h -2.44098 -2.440986 l -0.64763,1.047887 -0.64763,1.047887 0.557228,1.452113 L 97.93723,93 H 100.46862 103 Z M 982,89.930449 V 86.860898 L 979.75,87.180449 977.5,87.5 977.18358,90.25 976.86716,93 H 979.43358 982 Z M 991.81642,90.25 991.5,87.5 989.25,87.180449 987,86.860898 V 89.930449 93 h 2.56642 2.56642 z m 9.97738,-5 0.2938,-7.25 H 994.54381 987 v 2.5 2.5 h 4.5 4.5 v 4.333333 4.333334 l 0.70885,0.708849 0.70885,0.708849 2.04115,-0.292182 L 1001.5,92.5 Z"
       id="path1" />
  </g>
</svg>
