<?xml version="1.0" encoding="UTF-8" standalone="no"?>
<!-- Created with Inkscape (http://www.inkscape.org/) -->

<svg
   version="1.1"
   id="svg1"
   width="1080"
   height="1080"
   viewBox="0 0 1080 1080"
   sodipodi:docname="divider1.svg"
   inkscape:version="1.4 (86a8ad7, 2024-10-11)"
   xmlns:inkscape="http://www.inkscape.org/namespaces/inkscape"
   xmlns:sodipodi="http://sodipodi.sourceforge.net/DTD/sodipodi-0.dtd"
   xmlns="http://www.w3.org/2000/svg"
   xmlns:svg="http://www.w3.org/2000/svg">
  <sodipodi:namedview
     id="namedview1"
     pagecolor="#ffffff"
     bordercolor="#000000"
     borderopacity="0.25"
     inkscape:showpageshadow="2"
     inkscape:pageopacity="0.0"
     inkscape:pagecheckerboard="0"
     inkscape:deskcolor="#d1d1d1"
     inkscape:zoom="0.71574074"
     inkscape:cx="539.30142"
     inkscape:cy="540"
     inkscape:window-width="1920"
     inkscape:window-height="991"
     inkscape:window-x="-9"
     inkscape:window-y="-9"
     inkscape:window-maximized="1"
     inkscape:current-layer="svg1" />
  <defs
     id="defs1" />
  <g
     id="g1">
    <path
       style="fill:#000000"
       d="M 180.99369,2.4251735e-5 H 361.98737 L 362.24369,75.250024 l 0.25633,75.249996 35.25,0.26279 35.25,0.2628 0.11842,-74.762793 0.11842,-74.7627927 -0.11842,-0.75000005 -0.11842,-0.749999998265 h 323.5 H 1080 V 323.50002 v 323.5 h -71 -70.99998 v 34.51319 34.5132 l 71.00018,-0.2632 71.0001,-0.26319 -2e-4,182.25 L 1080,1080 H 899.00635 718.01267 l -0.25632,-75.25 -0.25633,-75.24998 -35.25,-0.26279 -35.25,-0.2628 -0.11842,74.76277 -0.11842,74.7628 0.11842,0.75 0.11842,0.75 h -323.5 H 2.4251735e-5 v -323.49998 -323.5 H 71.000024 142.00002 v -34.51319 -34.5132 l -71.000096,0.2632 -71.00019974827,0.26319 2.00000005e-4,-182.25 1e-4,-182.249995748265 z M 106.58293,289.00002 h 35.58291 l -0.62182,-64.75 -0.62183,-64.75 -0.52135,-4.24328 -0.52135,-4.24327 70.81027,-0.25673 70.81026,-0.25672 v -34 -33.999996 L 176.25002,82.245438 71.000024,81.990852 V 185.49543 289.00002 Z m -0.0829,709 h 35.5 v -34.5 -34.5 h -34 -33.999996 v -36.5 -36.5 h 34.002796 34.0028 l -0.2528,-174.75 -0.2528,-174.75 -33.99338,-0.2636 -33.993416,-0.26359 -1.2566,0.48221 -1.2566,0.48221 v 245.53139 245.53138 z m 142.25,-709.23634 32.75,-0.26366 v -32 -32 l -32.75,-0.26366 -32.75,-0.26367 v 32.52733 32.52733 z m 0,144 32.75,-0.26366 v -34 -34 l -32.75,-0.26366 -32.75,-0.26367 v 34.52733 34.52733 z m 144.75,423.23634 h 177.5 V 786.00651 716.013 l 73.25,-0.25649 73.25,-0.25649 0.25671,-70.74347 0.2567,-70.74347 72.7433,-0.25653 72.74329,-0.25653 0.2528,-174.75 0.2528,-174.75 h -177.5028 -177.5028 v 69.99351 69.99351 l -73.25,0.25649 -73.25,0.25649 -0.25671,70.75 -0.25671,70.75 h -72.32662 -72.32663 l -0.66666,0.66667 -0.66667,0.66666 v 174.33334 174.33333 z m 0.0131,142 h 177.51316 l -0.26313,-34.25 -0.26313,-34.25 -177.25,-0.25276 -177.25,-0.25276 v 34.50276 34.50276 z m 2.7369,-709.2367 33.75,0.2633 v -32.5133 -32.5133 h -33.33333 -33.33334 l -0.68047,0.68047 -0.68046,0.68047 0.2638,31.56953 0.2638,31.56953 z m 290.5,-138.01054 177.25,0.25276 V 116.50278 82.000024 H 686.48689 508.97376 l 0.26313,34.249996 0.26313,34.25 z m -3,705.01054 33.75,-0.2633 v -32 -32 l -33.75,-0.2633 -33.75,-0.2633 v 32.5266 32.5266 z m 147.5,-139.99964 32.75,0.26367 v -34.51367 -34.51366 h -32.33333 -32.33334 l -0.67975,0.67975 -0.67975,0.67975 0.26309,33.57025 0.26308,33.57025 z m 0,140 32.75,0.26367 v -32.51367 -32.51366 h -32.33333 -32.33334 l -0.68047,0.68047 -0.68046,0.68047 0.2638,31.56953 0.2638,31.56953 z m 72.5,141.99093 L 1009,998.00919 V 894.50461 791.00002 H 973.41711 937.8342 l 0.62182,64.75 0.62183,64.75 0.52236,4.25 0.52236,4.25 h -70.39461 -70.39461 l -0.67975,0.67975 -0.67975,0.67975 0.26309,33.57025 0.26308,33.57025 z m 68.25,-846.75459 H 1006 v 36.5 36.5 h -34.00278 -34.0028 l 0.2528,174.75 0.2528,174.75 h 35 34.99998 l 0.252,-245.75 0.252,-245.749996 h -35.50198 -35.502 v 34.499996 34.5 z"
       id="path1" />
  </g>
</svg>
