<?xml version="1.0" encoding="UTF-8" standalone="no"?>
<!-- Created with Inkscape (http://www.inkscape.org/) -->

<svg
   version="1.1"
   id="svg1"
   width="239"
   height="64"
   viewBox="0 0 239 64"
   xmlns="http://www.w3.org/2000/svg"
   xmlns:svg="http://www.w3.org/2000/svg">
  <defs
     id="defs1" />
  <g
     id="g1">
    <path
       style="fill:#000000"
       d="M 103,46.5 86.522732,30 H 43.761366 1 V 27.011474 24.022949 L 40.474468,23.761474 79.948937,23.5 71.822378,14.674818 63.695818,5.8496364 66.351461,3.1939931 69.007105,0.53834978 80.768572,12.269175 92.530039,24 h 3.96709 3.967091 L 110.23211,14.268762 120,4.5375233 129.76789,14.268762 139.53578,24 h 3.96709 3.96709 L 158.98603,12.513931 170.5021,1.0278624 173.50105,3.4517092 176.5,5.8755561 168.25,14.208666 160,22.541775 V 23.270888 24 h 39.5 39.5 v 3 3 H 196.18301 153.36602 L 136.96979,46.5 120.57356,63 h -0.54815 -0.54814 z m 36.89263,-16.369124 -1.13301,-0.377671 -9.61767,9.617668 -9.61767,9.617668 -9.72979,-9.693284 -9.7298,-9.693283 -0.488586,0.488589 -0.488589,0.488589 10.111455,10.788643 10.11145,10.788644 10.85761,-10.823946 10.85761,-10.823946 z M 124.5,35 129.42482,30 H 119.5 109.57518 l 4.92482,5 4.92482,5 h 0.0752 0.0752 z M 129,23.208208 v -0.791792 l -4.51508,-4.43122 -4.51509,-4.431219 -5.22301,5.223011 L 109.52381,24 H 119.2619 129 Z"
       id="path1" />
  </g>
</svg>
