<?xml version="1.0" encoding="UTF-8" standalone="no"?>
<!-- Created with Inkscape (http://www.inkscape.org/) -->

<svg
   viewBox="0 0 191.82166 19.396461"
   version="1.1"
   id="svg5"
   xml:space="preserve"
   xmlns="http://www.w3.org/2000/svg"
   xmlns:svg="http://www.w3.org/2000/svg"><defs
     id="defs2" /><g
     id="layer1"
     transform="translate(-16.044064,-134.18517)"><path
       style="stroke-width:0.352778"
       d="m 64.981308,153.42063 c 0,-0.092 0.474108,-0.4125 1.05357,-0.71216 0.579466,-0.29965 1.611341,-1.03455 2.293056,-1.6331 1.501105,-1.31799 1.535889,-1.8454 0.515941,-7.8234 -0.397947,-2.33241 -0.673583,-4.65192 -0.612525,-5.15447 l 0.11102,-0.91371 0.612524,1.12901 c 0.666757,1.22897 0.768802,1.65505 0.331682,1.38489 -0.154464,-0.0955 -0.128221,0.84767 0.05832,2.09585 0.186534,1.24818 0.479548,2.26942 0.651136,2.26942 0.497127,0 2.46574,-1.06354 3.75232,-2.02718 1.308189,-0.97983 1.049998,-1.48533 -0.7637,-1.4952 -0.900515,-0.005 -0.982246,-0.10835 -0.881944,-1.11635 0.0608,-0.61103 0.397979,-1.28571 0.749282,-1.49931 0.52511,-0.31927 0.791827,-0.21227 1.499306,0.60146 1.677412,1.92933 0.996763,3.78084 -2.050348,5.57739 l -2.163424,1.27554 -0.02148,2.44572 c -0.02596,2.95189 -0.66457,4.11827 -2.780965,5.07918 -1.43618,0.65208 -2.353748,0.85339 -2.353748,0.51642 z m 8.723901,-14.15692 c -0.117228,-0.11723 -0.421499,-0.12976 -0.676158,-0.0279 -0.281422,0.11261 -0.197831,0.19621 0.213137,0.21313 0.371885,0.0153 0.580246,-0.0681 0.463021,-0.18528 z m 2.295275,13.97005 c -1.324744,-0.55124 -2.005154,-3.67631 -1.14881,-5.2764 0.248613,-0.46454 0.205553,-0.76135 -0.153713,-1.05952 -0.672338,-0.55799 -1.025676,-2.3152 -0.6136,-3.05154 0.271427,-0.48501 0.333752,-0.40915 0.333752,0.40618 0,2.36504 2.436668,2.65224 4.987315,0.58783 1.653646,-1.33841 1.726861,-1.7654 0.325766,-1.89993 -1.026884,-0.0986 -1.167942,-0.23532 -1.167942,-1.13203 0,-0.60568 0.259708,-1.17878 0.639463,-1.41111 0.520844,-0.31866 0.766138,-0.23687 1.322352,0.44091 0.515902,0.62865 0.898694,0.77797 1.565399,0.61064 0.629101,-0.1579 0.882508,-0.0786 0.882508,0.27614 0,0.27371 -0.396875,0.59726 -0.881944,0.719 -0.522453,0.13113 -0.881944,0.47421 -0.881944,0.8417 0,0.34118 -0.258728,0.98972 -0.574951,1.44119 -0.769725,1.09894 -3.600556,2.86391 -4.59341,2.86391 -1.181093,0 -1.540485,2.17177 -0.574442,3.47129 1.040864,1.40017 2.83191,1.429 5.553047,0.0894 3.560978,-1.75307 3.583065,-1.80175 2.84837,-6.27878 -0.487369,-2.96989 -0.525748,-3.81369 -0.178721,-3.92937 0.558363,-0.18612 -2.023149,-1.10121 -3.126652,-1.10833 -0.503611,-0.003 -0.763626,-0.17649 -0.669815,-0.44628 0.09211,-0.26492 0.739757,-0.42867 1.622121,-0.41014 1.467944,0.0308 1.468667,0.0302 1.255494,-1.10613 -0.117312,-0.62533 -0.0635,-1.22954 0.119581,-1.34269 0.461896,-0.28547 1.208606,1.47472 0.959101,2.26085 -0.162274,0.51128 0.07139,0.7203 1.13562,1.01583 0.736963,0.20465 1.767127,0.37298 2.289252,0.37406 1.050657,0.002 1.58368,0.51759 0.94408,0.91288 -0.226142,0.13977 -1.062168,0.31041 -1.857838,0.3792 -2.310821,0.19981 -2.260878,0.11254 -1.817373,3.17549 0.659973,4.55792 0.09857,5.72387 -3.705726,7.69626 -1.938341,1.00496 -3.755634,1.3392 -4.83634,0.8895 z m 3.79749,-11.64025 c 0,-0.19403 -0.15875,-0.35278 -0.352777,-0.35278 -0.194028,0 -0.352778,0.15875 -0.352778,0.35278 0,0.19403 0.15875,0.35278 0.352778,0.35278 0.194027,0 0.352777,-0.15875 0.352777,-0.35278 z M 16.297973,152.9197 c 0,-0.28642 3.490616,-1.60316 3.698589,-1.39519 0.07504,0.075 -0.726444,0.47606 -1.781076,0.89116 -1.054632,0.41511 -1.917513,0.64192 -1.917513,0.50403 z m 13.405556,0 c 0,-0.28642 3.490616,-1.60316 3.698588,-1.39519 0.07504,0.075 -0.726443,0.47606 -1.781075,0.89116 -1.054632,0.41511 -1.917513,0.64192 -1.917513,0.50403 z m 4.58906,-0.028 c -0.375112,-0.23715 -0.417376,-0.44152 -0.147185,-0.71172 0.511843,-0.51184 1.559221,-0.0709 1.31894,0.55524 -0.223582,0.58265 -0.449878,0.61287 -1.171755,0.15648 z m 2.94643,-0.46663 c 4.774232,-3.08865 4.692,-2.86307 3.56513,-9.77987 -0.597,-3.66443 -0.809514,-5.83945 -0.591822,-6.05714 0.376559,-0.37656 1.256405,1.69795 0.93838,2.21253 -0.102322,0.16556 0.05782,1.69513 0.355874,3.39906 0.916863,5.24155 0.629903,7.88299 -1.003678,9.23874 -0.29482,0.24468 -1.297475,0.66231 -2.228122,0.92808 -1.170944,0.33438 -1.489946,0.35243 -1.035762,0.0586 z m 64.608711,0.21053 c -1.78037,-0.28567 -1.897339,-1.47765 -0.29302,-2.9861 0.8624,-0.81087 1.02666,-0.82685 10.28552,-1.00042 l 9.40913,-0.17639 0.11299,-1.17925 c 0.11655,-1.21652 -0.77655,-7.67838 -1.38575,-10.02619 -0.22833,-0.87999 -0.22414,-1.53422 0.0125,-1.94027 0.19631,-0.33694 0.36176,-0.49245 0.36766,-0.34557 0.032,0.79769 1.87382,10.49193 2.17895,11.46894 0.3551,1.13704 1.77566,2.19873 2.94194,2.19873 0.44345,0 0.48356,-0.14115 0.19391,-0.68236 -0.56934,-1.06382 -0.43234,-2.28753 0.35013,-3.1274 0.94666,-1.01612 2.07741,-1.26457 3.3554,-0.73726 l 1.04456,0.431 -1.81639,0.25124 c -0.99901,0.13818 -1.9912,0.35928 -2.20486,0.49133 -1.12502,0.6953 0.49597,3.02182 2.10371,3.01935 0.47256,-7e-4 1.37514,-0.31589 2.00573,-0.70037 1.22156,-0.74479 1.55719,-0.47328 0.52917,0.42808 -1.23019,1.07862 -2.91184,1.68472 -4.67432,1.68472 -1.82427,0 -3.64572,-0.67511 -4.02507,-1.49188 -0.14366,-0.3093 -0.26693,-0.32712 -0.39738,-0.0574 -0.75405,1.55882 -0.64089,1.53913 -10.04144,1.74758 -10.00137,0.22177 -10.58333,0.28125 -10.58333,1.08157 0,0.50767 1.97039,0.54883 20.78884,0.43425 11.43387,-0.0696 20.60168,-0.0233 20.37292,0.10299 -1.21865,0.67259 -7.3834,0.97796 -22.64093,1.12147 -9.31333,0.0876 -17.40907,0.083 -17.99052,-0.0103 z m -13.035306,-0.75286 c -0.250754,-0.79006 -1.834773,-1.60323 -2.145055,-1.10118 -0.216013,0.34952 -2.283283,1.51546 -2.283283,1.28777 0,-0.0691 0.73873,-0.65616 1.641619,-1.30457 l 1.64162,-1.17892 0.802054,0.93244 0.802055,0.93245 0.229302,-1.044 c 0.289599,-1.31854 0.669999,-1.55771 1.281571,-0.80577 0.417583,0.51342 0.403454,0.56233 -0.10722,0.37117 -0.619051,-0.23173 -0.999335,0.34182 -0.999335,1.5072 0,0.91394 -0.610718,1.19931 -0.863328,0.40341 z m 3.824718,0.18518 c 1.52593,-0.95946 3.522857,-2.57647 3.869263,-3.13313 0.26929,-0.43274 0.146604,-2.0289 -0.447407,-5.82083 -0.450144,-2.87354 -0.840211,-5.46273 -0.866817,-5.75377 -0.09479,-1.03695 0.54901,-0.86268 1.028837,0.27849 0.286149,0.68055 0.331061,1.06349 0.108607,0.926 -0.252713,-0.15618 -0.311718,0.10411 -0.176784,0.77985 1.674689,8.38662 1.309147,11.15612 -1.64979,12.49952 -1.679448,0.7625 -2.968527,0.91715 -1.865909,0.22386 z m 57.229318,-0.37808 c -0.28092,-1.11929 -1.51339,-1.40278 -2.65833,-0.61145 -1.65004,1.14041 -1.99092,1.17628 -0.73516,0.0774 1.73014,-1.51406 2.4732,-1.69708 3.20765,-0.79008 l 0.60561,0.7479 0.37917,-1.08768 c 0.37433,-1.07381 1.08422,-1.24547 1.38754,-0.33552 0.1,0.29987 -0.001,0.37077 -0.28198,0.19733 -0.56341,-0.34821 -1.0523,0.42339 -1.05925,1.67179 -0.007,1.19147 -0.5576,1.27644 -0.84525,0.13035 z m 3.83846,0.56791 c 0.19402,-0.19739 2.97663,-0.61134 6.18356,-0.91988 3.20694,-0.30853 7.08263,-0.88114 8.61266,-1.27245 4.45771,-1.14009 7.57144,-3.36859 4.69475,-3.36003 -0.92982,0.003 -1.16832,-0.15029 -1.2618,-0.80976 -0.0634,-0.44724 0.0751,-1.04255 0.30777,-1.32292 0.55231,-0.66549 1.71455,-0.65405 1.97298,0.0194 0.22671,0.5908 1.38099,0.71696 1.70867,0.18675 0.1164,-0.18833 -0.033,-0.81544 -0.33195,-1.39359 -0.67001,-1.29564 -0.75685,-2.8517 -0.12382,-2.21867 0.43335,0.43335 0.5753,0.87912 0.87994,2.76333 0.12999,0.80395 -0.0116,1.28066 -0.52395,1.76389 -0.38614,0.3642 -0.95105,1.26315 -1.25533,1.99767 -0.8387,2.02448 -3.7139,3.22526 -9.39821,3.92498 -6.26849,0.77163 -11.9032,1.08679 -11.46527,0.64127 z m 19.75555,-6.78367 c -0.11991,-0.19403 -0.36741,-0.35278 -0.54999,-0.35278 -0.18257,0 -0.33195,0.15875 -0.33195,0.35278 0,0.19402 0.24749,0.35277 0.54999,0.35277 0.30249,0 0.45187,-0.15875 0.33195,-0.35277 z m -124.354163,6.12284 c 0.679097,-0.32282 2.348357,-1.0926 3.709462,-1.71063 2.974601,-1.35067 5.462761,-2.8803 5.462761,-3.35831 0,-0.19159 -0.466881,-0.34835 -1.037513,-0.34835 -1.218639,0 -1.576451,-0.43449 -1.291801,-1.56864 0.290664,-1.15808 1.153251,-1.37131 2.024196,-0.50036 0.602904,0.6029 0.933831,0.68082 1.816442,0.42769 1.655816,-0.47488 1.636043,-1.18091 -0.03307,-1.18091 -1.654975,0 -2.129906,-0.72603 -1.301732,-1.98999 0.68622,-1.0473 1.258542,-1.05134 2.231432,-0.0157 1.4201,1.51163 0.812095,3.65001 -1.212783,4.2654 -0.443709,0.13485 -0.875382,0.68685 -1.067174,1.36465 -0.257873,0.91133 -0.86361,1.46395 -3.039064,2.7726 -1.719439,1.03433 -3.335242,1.72171 -4.400881,1.87218 -0.926134,0.13077 -2.001383,0.30967 -2.389438,0.39756 -0.388056,0.0879 -0.149931,-0.10433 0.529166,-0.42714 z m 8.290278,-6.8284 c -0.119916,-0.19403 -0.367411,-0.35278 -0.549987,-0.35278 -0.182577,0 -0.331957,0.15875 -0.331957,0.35278 0,0.19403 0.247494,0.35278 0.549987,0.35278 0.302493,0 0.451873,-0.15875 0.331957,-0.35278 z m 2.293056,-2.82222 c 0,-0.19403 -0.15875,-0.35278 -0.352778,-0.35278 -0.194028,0 -0.352778,0.15875 -0.352778,0.35278 0,0.19403 0.15875,0.35278 0.352778,0.35278 0.194028,0 0.352778,-0.15875 0.352778,-0.35278 z m 130.406059,9.58542 c -0.83834,-0.92636 -0.71752,-2.19317 0.32538,-3.41181 0.49814,-0.58208 0.7907,-0.82021 0.65014,-0.52917 -0.14056,0.29104 -0.4823,0.79389 -0.75942,1.11744 -0.7082,0.82684 -0.44009,2.20973 0.45318,2.33754 0.42008,0.0601 1.97038,-0.7259 3.69341,-1.87256 2.6619,-1.77147 2.97353,-2.09379 3.00889,-3.11198 0.0456,-1.31358 1.06935,-3.05655 1.79527,-3.05655 0.27353,0 0.64977,0.40095 0.83608,0.89099 0.4719,1.24119 1.29067,1.44487 2.42802,0.60399 0.88905,-0.6573 1.00286,-0.66855 1.37294,-0.13571 0.36627,0.52737 0.46654,0.5082 1.086,-0.20763 0.553,-0.63902 0.72064,-0.68922 0.88358,-0.26459 0.17031,0.44382 1.63436,0.79074 1.63436,0.38728 0,-0.0752 -0.4888,-1.18133 -1.08623,-2.458 -1.08301,-2.31434 -1.13041,-3.5118 -0.10534,-2.66107 0.28023,0.23257 0.44689,0.59747 0.37034,0.81088 -0.0765,0.21342 0.1563,0.97702 0.51742,1.69689 0.8024,1.59954 0.83839,2.86866 0.10222,3.60483 -0.6889,0.6889 -1.01788,0.69561 -1.67923,0.0343 -0.45828,-0.45828 -0.54382,-0.45828 -0.71968,0 -0.24295,0.63312 -1.51415,0.69132 -1.72829,0.0791 -0.11305,-0.32322 -0.34027,-0.27612 -0.85092,0.17639 -1.01628,0.90058 -1.82823,0.75869 -2.50962,-0.43855 -0.63554,-1.11668 -1.03664,-1.19028 -1.60203,-0.29396 -0.52773,0.83663 -0.0232,1.6792 1.3489,2.25248 1.87749,0.78446 1.59635,1.43136 -0.6124,1.40911 -1.67928,-0.0169 -2.09709,0.15414 -4.47802,1.83342 -2.85388,2.01286 -3.48743,2.18764 -4.37495,1.20694 z m 7.88283,0.19229 c 0,-0.31373 -0.27649,-0.72516 -0.61442,-0.91428 -0.33794,-0.18912 -0.48371,-0.47457 -0.32394,-0.63433 0.15977,-0.15977 0.49615,-0.009 0.74752,0.33453 0.43161,0.59027 0.46741,0.58533 0.64368,-0.0888 0.10266,-0.39258 0.39996,-0.71134 0.66066,-0.70837 0.36111,0.004 0.3711,0.0708 0.0419,0.2799 -0.23763,0.15097 -0.48489,0.6207 -0.54947,1.04384 -0.14455,0.9472 -0.60596,1.47066 -0.60596,0.68746 z m 3.97036,0.007 c 0.11377,-0.34132 4.99158,-2.37643 5.69589,-2.37643 0.68394,0 -0.19737,0.47219 -2.96137,1.58665 -1.57024,0.63313 -2.80078,0.98852 -2.73452,0.78977 z M 61.811708,151.03032 c 0.0028,-0.24254 0.15929,-0.6791 0.347377,-0.97014 0.266482,-0.41235 0.343165,-0.31501 0.347377,0.44097 0.0028,0.53358 -0.153349,0.97014 -0.347377,0.97014 -0.194028,0 -0.350347,-0.19844 -0.347377,-0.44097 z m 9.744802,-0.0882 c -0.111682,-0.29104 -0.04929,-0.52917 0.138646,-0.52917 0.187938,0 0.341707,0.16812 0.341707,0.3736 0,0.20548 0.15875,0.27548 0.352778,0.15557 0.194028,-0.11992 0.352778,-0.0499 0.352778,0.15556 0,0.57021 -0.955499,0.44487 -1.185909,-0.15556 z m -27.637158,-0.90071 c -0.07606,-1.04042 0.675171,-1.95886 1.290948,-1.57829 0.653094,0.40363 0.391347,0.83148 -0.384556,0.62858 -0.544615,-0.14242 -0.704681,-0.0601 -0.578834,0.29761 0.102849,0.29235 0.577857,0.46416 1.162078,0.42031 1.072053,-0.0804 0.859518,0.25296 -0.536014,0.84086 -0.812331,0.34221 -0.887603,0.29414 -0.953622,-0.60907 z m 13.477233,0.83623 c 0.608023,-0.56399 2.943123,-2.22858 3.126264,-2.22858 0.323113,0 1.283458,1.10507 1.283458,1.47688 0,0.20248 -0.410298,0.0993 -0.911775,-0.22927 -0.799832,-0.52407 -0.983911,-0.53461 -1.499305,-0.0859 -0.653232,0.56872 -2.557385,1.58515 -1.998642,1.06687 z m 117.298605,-0.12479 c 0,-0.35886 5.65251,-2.56611 5.91059,-2.30802 0.10319,0.10319 -0.11291,0.2983 -0.48023,0.43357 -0.36732,0.13527 -1.73942,0.67731 -3.04911,1.20451 -1.30968,0.52722 -2.38125,0.82869 -2.38125,0.66994 z M 16.836199,149.72492 c -0.296024,-0.57245 -0.521225,-1.56464 -0.500446,-2.20486 0.03679,-1.1334 0.04646,-1.12539 0.367395,0.30419 0.696247,3.10137 2.134432,2.78641 2.80341,-0.61394 0.224666,-1.14195 0.621469,-2.35696 0.881785,-2.70001 0.412417,-0.5435 0.474746,-0.34381 0.484522,1.55227 0.01448,2.80783 0.221195,3.29205 1.405398,3.29205 1.531308,0 2.278613,-1.0983 1.974915,-2.9025 -0.611065,-3.63019 -0.622184,-4.02497 -0.09499,-3.37277 0.268482,0.33214 0.690506,1.52276 0.937832,2.64583 0.516114,2.34359 1.190754,3.27666 2.369129,3.27666 1.085021,0 1.047605,-0.50826 -0.239964,-3.25974 -0.618827,-1.3224 -0.97096,-2.5315 -0.8381,-2.87772 0.205116,-0.53453 0.283769,-0.5191 0.750437,0.14716 0.286718,0.40934 0.432862,0.83271 0.324763,0.94081 -0.108098,0.10809 0.19321,0.96568 0.669573,1.90573 1.013872,2.00078 1.069447,2.69648 0.302837,3.79097 -0.828401,1.1827 -2.274105,0.9103 -3.012298,-0.56759 l -0.576965,-1.1551 -0.222386,0.88606 c -0.273723,1.0906 -1.658674,2.04723 -2.739597,1.89233 -1.149366,-0.16471 -1.763829,-1.56298 -1.523464,-3.46679 0.144505,-1.14457 0.09944,-1.43986 -0.161502,-1.05834 -0.199061,0.29104 -0.365245,0.84667 -0.369298,1.23472 -0.0041,0.38806 -0.172696,1.30087 -0.374762,2.02848 -0.478793,1.72405 -1.799004,1.8663 -2.618225,0.2821 z m 15.021505,0.19879 c -0.654743,-0.69694 -0.906327,-1.70601 -1.460179,-5.85658 -0.719454,-5.39159 -0.930067,-6.35417 -1.390297,-6.35417 -0.162788,0 -0.21295,-0.3175 -0.111471,-0.70556 0.552926,-2.11439 1.291399,0.16874 2.058367,6.36384 0.567462,4.58362 0.830234,5.3978 1.93249,5.98771 1.177608,0.63023 2.129632,-0.12975 1.892283,-1.51058 -0.149328,-0.86875 -0.106266,-1.01382 0.181196,-0.61041 0.584775,0.82063 0.455604,2.2988 -0.257258,2.94393 -0.904819,0.81885 -1.919848,0.72674 -2.845131,-0.25818 z m 154.131776,0.40105 c 0.003,-0.24253 0.15929,-0.6791 0.34738,-0.97014 0.26648,-0.41235 0.34317,-0.31501 0.34738,0.44097 0.003,0.53358 -0.15335,0.97014 -0.34738,0.97014 -0.19403,0 -0.35035,-0.19843 -0.34738,-0.44097 z M 79.945563,149.93595 c -0.110113,-0.28695 -0.132775,-0.9717 -0.05037,-1.52167 0.142526,-0.95112 0.152422,-0.94294 0.2027,0.16741 0.03069,0.67775 0.200815,1.0759 0.405634,0.94932 0.194028,-0.11992 0.352778,-0.0593 0.352778,0.13475 0,0.60891 -0.700966,0.81686 -0.910745,0.27019 z m 12.252491,-0.66952 c 0.0496,-1.07578 0.06196,-1.08629 0.200398,-0.17041 0.08115,0.53687 0.295487,0.88468 0.47631,0.77293 0.180824,-0.11176 0.328768,-0.0351 0.328768,0.17041 0,0.20548 -0.238125,0.3736 -0.529166,0.3736 -0.372668,0 -0.513536,-0.33909 -0.47631,-1.14653 z m 89.376306,0.90566 c 0.86873,-0.80581 2.98537,-2.22858 3.31544,-2.22858 0.33534,0 1.09428,1.09057 1.09428,1.57244 0,0.11424 -0.40094,-0.055 -0.89098,-0.37608 -0.79485,-0.5208 -0.95662,-0.52657 -1.49931,-0.0535 -0.66637,0.58094 -2.59048,1.61537 -2.01943,1.08569 z M 36.574258,149.32804 c -0.127805,-0.40268 -0.152997,-0.81152 -0.05598,-0.90853 0.09701,-0.097 0.281688,0.15538 0.410387,0.56087 0.128699,0.40549 0.381319,0.64622 0.561377,0.53493 0.180058,-0.11128 0.327379,-0.0342 0.327379,0.17127 0,0.67838 -1.006157,0.38819 -1.24316,-0.35854 z m 35.137679,-0.1792 c 0.01693,-0.41097 0.100521,-0.49456 0.213134,-0.21314 0.101907,0.25466 0.08938,0.55893 -0.02783,0.67616 -0.117228,0.11722 -0.200603,-0.0911 -0.185286,-0.46302 z m -9.200074,-0.29761 c 0,-0.63217 0.348982,-0.88703 0.916436,-0.66928 0.709295,0.27218 0.609737,0.70751 -0.21088,0.92211 -0.425359,0.11124 -0.705556,0.0108 -0.705556,-0.25283 z m 6.038145,0.18391 c -0.02251,-0.27272 -0.426202,-1.00099 -0.897104,-1.61837 -0.718837,-0.94245 -1.044226,-1.10024 -2.028472,-0.98368 -0.945353,0.11196 -0.762533,-0.0354 0.944376,-0.76124 2.505664,-1.06549 2.293055,-1.03182 2.293055,-0.3631 0,0.29713 -0.234198,0.63011 -0.520439,0.73995 -0.456276,0.17509 -0.453651,0.32887 0.02131,1.24733 0.29796,0.57619 0.471198,1.31478 0.384976,1.6413 -0.102249,0.3872 -0.171006,0.42122 -0.197697,0.0978 z m 66.550362,-0.21025 c -1.12505,-0.63664 -1.5081,-1.771 -1.01517,-3.00634 l 0.34861,-0.87365 0.0224,0.91546 c 0.0123,0.50351 0.35746,1.21788 0.76703,1.5875 1.14026,1.02906 5.41376,0.88017 8.45504,-0.29457 2.25121,-0.86957 2.33297,-0.87642 2.73701,-0.22945 0.50113,0.80244 1.56866,0.86759 2.17836,0.13295 0.35816,-0.43156 0.29881,-1.4983 -0.30959,-5.56369 -0.41399,-2.76637 -0.74788,-5.34391 -0.74198,-5.72787 0.0254,-1.653 0.68842,0.59708 1.3933,4.7284 0.81361,4.7687 1.03668,5.30108 2.62392,6.26226 1.44389,0.87437 7.44649,0.85713 13.69914,-0.0394 4.71695,-0.6763 5.46484,-1.10913 3.39672,-1.96578 -0.88376,-0.36606 -1.88417,-0.37451 -5.06645,-0.0428 -4.35657,0.45412 -7.58123,0.5302 -8.44378,0.1992 -0.64468,-0.24738 -0.72563,-1.28297 -0.17998,-2.30253 0.51984,-0.97133 4.48311,-3.48056 5.49748,-3.48056 0.55307,0 0.8269,0.20462 0.82621,0.61736 -7e-4,0.45738 -0.30051,0.62338 -1.15664,0.64058 -1.41686,0.0285 -4.90305,2.21021 -4.75437,2.9754 0.1209,0.62224 4.11763,0.70597 9.98469,0.20917 3.46057,-0.29303 3.56706,-0.27977 4.55134,0.56687 0.79751,0.686 0.96054,1.05547 0.78112,1.77032 -0.26036,1.03735 -0.44974,1.10113 -5.53948,1.8656 -8.41133,1.26336 -13.53088,1.06778 -15.01638,-0.57369 -0.58587,-0.64737 -0.62081,-0.63634 -1.2472,0.39368 -0.74671,1.22787 -2.17636,1.4382 -2.81581,0.41428 -0.38581,-0.61778 -0.49553,-0.60778 -2.56063,0.23344 -2.72513,1.11008 -6.96814,1.40648 -8.41487,0.58782 z m -94.583698,-0.61774 c -0.133301,-0.53112 -1.231729,-2.09023 -2.440949,-3.46469 -1.20922,-1.37446 -2.801527,-3.28306 -3.538459,-4.24134 -1.429033,-1.85826 -1.477783,-2.86224 -0.0883,-1.81855 0.452426,0.33984 0.688675,0.70191 0.524999,0.8046 -0.163676,0.1027 0.962881,1.60272 2.503461,3.33339 2.630501,2.95507 3.762466,4.90971 3.42668,5.91707 -0.07978,0.23935 -0.254128,7e-4 -0.38743,-0.53048 z m 8.824822,0.20673 c -0.365012,-0.36501 -0.277263,-2.20202 0.142663,-2.98666 0.287764,-0.5377 0.245713,-0.90769 -0.176389,-1.5519 -0.304832,-0.46523 -0.554239,-1.09093 -0.554239,-1.39044 0,-0.45204 0.117162,-0.4714 0.689512,-0.11396 0.379232,0.23683 0.618733,0.50138 0.532229,0.58789 -0.08651,0.0865 0.02127,0.37244 0.239529,0.63542 0.321669,0.38759 0.554905,0.26385 1.23166,-0.65344 0.935122,-1.26749 1.163736,-0.91549 0.251393,0.38706 -0.461077,0.65828 -0.498077,0.96972 -0.176389,1.48482 0.682071,1.09218 0.475445,2.32029 -0.522454,3.10524 -0.992776,0.78092 -1.285102,0.86839 -1.657515,0.49597 z m 1.837037,-1.65154 c 0.30063,-0.36224 0.233521,-0.62151 -0.281506,-1.0876 -0.644098,-0.5829 -0.69433,-0.57817 -1.057088,0.0996 -0.209469,0.39139 -0.380852,0.88081 -0.380852,1.0876 0,0.53754 1.250784,0.46505 1.719446,-0.0996 z m 44.403254,1.17229 c -0.129371,-0.48995 -1.663146,-2.52644 -3.408394,-4.52553 -3.011558,-3.44958 -3.879617,-4.78454 -3.413958,-5.2502 0.286149,-0.28614 1.646478,0.99273 1.429463,1.34387 -0.09668,0.15643 0.939556,1.52427 2.302739,3.03966 2.585367,2.87403 3.669154,4.65673 3.452919,5.67963 -0.09375,0.44347 -0.189894,0.3673 -0.362769,-0.28743 z m 91.107855,0.21104 c 0,-0.63216 0.34898,-0.88703 0.91643,-0.66928 0.7093,0.27219 0.60974,0.70752 -0.21088,0.92212 -0.42535,0.11123 -0.70555,0.0108 -0.70555,-0.25284 z m 18.71717,0.16294 c -0.6424,-0.39702 -0.20008,-1.47041 0.49587,-1.20335 0.57443,0.22043 0.73432,1.03085 0.26109,1.32332 -0.15479,0.0957 -0.49542,0.0417 -0.75696,-0.11997 z M 100.25909,148.0667 c 0,-0.26468 3.27433,-1.55998 3.63744,-1.43895 0.19382,0.0646 -0.54532,0.44816 -1.64253,0.85234 -1.0972,0.40418 -1.99491,0.66816 -1.99491,0.58661 z m -63.472154,-0.68175 c 0.01693,-0.41097 0.10052,-0.49456 0.213136,-0.21314 0.101908,0.25466 0.08937,0.55893 -0.02785,0.67616 -0.117225,0.11722 -0.200603,-0.0911 -0.185286,-0.46302 z m 55.624583,-0.41158 c -0.09159,-0.53357 -0.281322,-1.28764 -0.421618,-1.67569 -0.251446,-0.69551 -0.247135,-0.69581 0.302884,-0.0208 0.306881,0.37663 0.557967,1.13069 0.557967,1.67569 0,1.26402 -0.223996,1.27461 -0.439233,0.0208 z m -38.939837,0.0998 c -0.109227,-0.28464 -0.11678,-0.7212 -0.01679,-0.97014 0.114187,-0.28425 0.192175,-0.22297 0.209666,0.16475 0.01531,0.33955 0.275347,0.61737 0.577839,0.61737 0.302493,0 0.451874,0.15875 0.331957,0.35277 -0.317923,0.51442 -0.87394,0.43134 -1.102681,-0.16475 z m 33.622594,0.0289 c -0.103138,-0.26876 0.04763,-0.82439 0.335037,-1.23472 0.390098,-0.55694 0.410178,-0.74605 0.07922,-0.74605 -0.344816,0 -0.349261,-0.0941 -0.02,-0.42334 0.326634,-0.32663 0.518964,-0.3277 0.841996,-0.005 0.323028,0.32303 0.228399,0.62119 -0.414274,1.30528 -0.848014,0.90267 -0.702751,1.06033 0.827924,0.89853 0.391544,-0.0414 0.560892,0.0844 0.420151,0.31216 -0.339034,0.54857 -1.848404,0.47042 -2.070051,-0.10718 z m -42.589249,-1.46924 c -0.0084,-0.76641 -0.308857,-2.98098 -0.667802,-4.92125 -0.677446,-3.66193 -0.484766,-4.91567 0.471322,-3.0668 0.30467,0.58917 0.40628,1.12335 0.225795,1.18706 -0.193047,0.0682 -0.0966,1.61196 0.234252,3.74975 0.423601,2.73707 0.462351,3.73396 0.157,4.03931 -0.305347,0.30535 -0.409141,0.0615 -0.420567,-0.98807 z m 2.35743,1.00758 c -0.385011,-0.38501 -0.249378,-0.69596 0.303572,-0.69596 0.291042,0 0.529167,0.12292 0.529167,0.27316 0,0.39734 -0.569203,0.68634 -0.832739,0.4228 z m 146.576873,-2.75383 c -0.26524,-1.74625 -0.68449,-4.35807 -0.93167,-5.80403 -0.54645,-3.19664 -0.32718,-4.1326 0.57257,-2.444 0.738,1.38505 0.82391,1.86151 0.27439,1.52189 -0.25266,-0.15615 -0.32294,-0.008 -0.19905,0.42015 0.47753,1.64952 0.98853,6.11707 0.88269,7.7171 -0.1104,1.66898 -0.14262,1.59306 -0.59893,-1.41111 z m -77.74832,1.5875 c -0.46477,-2.36182 -1.32082,-7.88952 -1.32082,-8.52884 0,-0.98589 0.50478,-0.7655 0.95035,0.41495 0.21971,0.58208 0.27788,1.05833 0.12926,1.05833 -0.14862,0 -0.0472,1.29162 0.22547,2.87026 0.27262,1.57864 0.44236,3.44395 0.3772,4.14514 l -0.11848,1.27488 z m 3.11092,-0.45089 c -0.37595,-0.81917 -0.74636,-1.60845 -0.82315,-1.75397 -0.0768,-0.14553 0.0405,-0.26459 0.26057,-0.26459 0.47068,0 1.50936,2.32006 1.35351,3.02332 -0.0591,0.26654 -0.41498,-0.1856 -0.79093,-1.00476 z m 60.98895,0.63976 c -0.6941,-0.6941 -0.85316,-1.19243 -0.81522,-2.55409 l 0.0471,-1.69173 0.23639,1.70027 c 0.20658,1.48583 0.73934,2.33324 1.47823,2.35127 0.46984,0.0115 0.93848,-0.95245 1.36949,-2.81682 0.24671,-1.06715 0.62073,-2.33715 0.83117,-2.82222 0.33236,-0.76611 0.40693,-0.53921 0.56778,1.72754 0.20475,2.88542 0.6433,3.48275 2.25923,3.07718 1.44637,-0.36302 1.81272,-1.54057 1.16583,-3.74732 -0.32053,-1.09343 -0.42934,-2.14678 -0.26707,-2.58542 0.24654,-0.66648 0.31221,-0.61845 0.65913,0.48209 0.21192,0.67228 0.56775,1.9367 0.79075,2.80982 0.49206,1.92667 1.23293,2.82222 2.33475,2.82222 1.08643,0 1.04882,-0.52666 -0.23078,-3.23152 -1.06159,-2.244 -1.32641,-3.47125 -0.74903,-3.47125 0.43054,0 1.24564,1.0318 1.00511,1.27233 -0.10832,0.10833 0.18501,1.0173 0.65184,2.01995 0.46684,1.00265 0.85034,2.14486 0.85224,2.53825 0.005,1.08285 -0.99487,2.28335 -1.90216,2.28335 -0.83681,0 -1.97495,-0.98168 -1.97495,-1.70347 0,-0.22725 -0.15875,-0.41319 -0.35278,-0.41319 -0.19403,0 -0.35278,0.23812 -0.35278,0.52916 0,0.8691 -1.33947,1.94028 -2.42625,1.94028 -1.50436,0 -1.99141,-0.83664 -1.93241,-3.31947 0.0338,-1.42077 -0.0475,-1.90958 -0.23979,-1.44303 -0.15996,0.38806 -0.30289,1.02306 -0.31761,1.41111 -0.0526,1.38587 -0.75136,3.28472 -1.28403,3.48913 -0.31674,0.12154 -0.90013,-0.15034 -1.40422,-0.65442 z m -147.050996,-0.0413 c -0.33124,-0.8632 -0.25931,-0.94867 0.315034,-0.37433 0.599737,0.59974 0.676127,0.93235 0.214132,0.93235 -0.173269,0 -0.411394,-0.25111 -0.529166,-0.55802 z m 68.970216,-0.7061 c -0.54053,-0.68718 -0.73093,-1.39528 -0.69261,-2.57582 0.0359,-1.10433 0.0953,-1.28764 0.18493,-0.56979 0.24896,1.99497 0.46243,2.5683 1.03861,2.7894 0.91379,0.35065 1.47531,-0.39617 1.91872,-2.55192 0.71551,-3.47855 1.7657,-4.54213 1.47256,-1.49133 -0.26731,2.78188 0.0572,3.54691 1.50453,3.54691 0.90308,0 1.36597,-0.22298 1.78248,-0.85866 0.50545,-0.77141 0.51004,-1.0651 0.0452,-2.89007 -0.59002,-2.31661 -0.40966,-3.54855 0.32233,-2.20169 0.24964,0.45933 0.56144,1.47014 0.6929,2.24625 0.41247,2.43525 1.09592,3.33617 2.53832,3.34599 1.06554,0.007 1.01134,-0.642 -0.26458,-3.1696 -1.04701,-2.0741 -1.35329,-3.52778 -0.7433,-3.52778 0.32788,0 0.77686,0.8514 0.93016,1.76389 0.0489,0.29104 0.44906,1.34797 0.88924,2.34872 0.70526,1.60342 0.74666,1.94914 0.34848,2.91042 -0.34864,0.8417 -0.67132,1.09086 -1.41271,1.09086 -0.96455,0 -2.12854,-0.93153 -2.12854,-1.70347 0,-0.22726 -0.15875,-0.41319 -0.35278,-0.41319 -0.19403,0 -0.35278,0.23812 -0.35278,0.52916 0,0.8691 -1.33947,1.94028 -2.42625,1.94028 -1.46904,0 -1.99062,-0.84485 -1.93995,-3.14226 0.041,-1.85881 0.0236,-1.90155 -0.30011,-0.7383 -0.99589,3.57843 -1.19583,4.05871 -1.73197,4.16029 -0.3176,0.0602 -0.91292,-0.31705 -1.32292,-0.83829 z m 36.86721,0.32657 c -0.1348,-0.41864 -0.47717,-0.85022 -0.76082,-0.95907 -0.55784,-0.21406 -0.7143,-0.92561 -0.20354,-0.92561 0.46185,0 1.51904,1.73991 1.35279,2.22638 -0.0788,0.2307 -0.25364,0.0769 -0.38843,-0.3417 z M 64.755025,143.9748 c -1.990199,-2.08444 -3.301495,-3.92573 -3.301495,-4.63588 0,-0.55649 0.06358,-0.55405 0.866969,0.0333 0.476835,0.34861 0.834023,0.82421 0.79375,1.0569 -0.04027,0.23268 0.760218,1.37299 1.778864,2.53401 1.018646,1.16102 1.852083,2.20095 1.852083,2.31096 0,0.51685 -0.680039,0.0729 -1.990171,-1.29929 z m -17.997798,-0.26458 c 0.01838,-0.87313 -0.107544,-1.89136 -0.27982,-2.26273 -0.220468,-0.47528 -0.195051,-0.6022 0.08584,-0.4286 0.583346,0.36053 0.875259,2.37639 0.491892,3.39688 -0.284276,0.75672 -0.326577,0.65654 -0.297914,-0.70555 z m 100.112623,0.48507 c -0.23281,-0.51097 -0.34242,-1.0099 -0.24357,-1.10875 0.0988,-0.0988 0.34736,0.26118 0.55225,0.80007 0.48393,1.27283 0.24121,1.51555 -0.30868,0.30868 z m -130.571877,0.24609 c 0,-0.17995 0.410183,-0.64982 0.911517,-1.04417 0.501334,-0.39435 0.818615,-0.86732 0.705069,-1.05104 -0.117923,-0.19081 0.13412,-0.25361 0.587789,-0.14646 0.781378,0.18454 0.782823,0.17876 0.08924,-0.35684 -0.387751,-0.29942 -0.608677,-0.64073 -0.490948,-0.75846 0.117729,-0.11773 0.579301,0.0817 1.025714,0.44319 0.86389,0.69953 0.712276,1.47171 -0.291558,1.48491 -0.328097,0.004 -0.993416,0.33533 -1.478485,0.73559 -0.758645,0.626 -0.783305,0.70448 -0.176389,0.56134 0.388055,-0.0915 1.023055,-0.27674 1.411111,-0.41161 0.695596,-0.24175 0.695889,-0.23733 0.02077,0.31276 -0.742203,0.60474 -2.313824,0.7615 -2.313824,0.23079 z m 16.608407,-0.58417 c 0.01693,-0.41097 0.100521,-0.49456 0.213137,-0.21314 0.101907,0.25466 0.08937,0.55893 -0.02785,0.67616 -0.117225,0.11722 -0.200604,-0.0911 -0.185286,-0.46302 z m 106.15826,0.0754 c 0,-0.58045 0.63336,-1.11774 0.94741,-0.8037 0.1072,0.1072 -0.0621,0.45194 -0.37625,0.76608 -0.4932,0.4932 -0.57116,0.49834 -0.57116,0.0376 z m 3.19143,-1.08455 c -0.52722,-0.63526 -0.18533,-1.29719 0.52853,-1.02326 0.28729,0.11025 0.7374,0.022 1.00023,-0.19615 0.36046,-0.29916 0.58349,-0.26932 0.90782,0.12147 0.52722,0.63526 0.18533,1.29719 -0.52852,1.02326 -0.2873,-0.11024 -0.73741,-0.022 -1.00024,0.19615 -0.36046,0.29916 -0.58349,0.26932 -0.90782,-0.12147 z M 32.727339,141.39192 c -0.129759,-0.517 -0.156551,-1.01937 -0.05954,-1.11639 0.09701,-0.097 0.282556,0.24662 0.412315,0.76362 0.129758,0.517 0.15655,1.01937 0.05954,1.11639 -0.09701,0.097 -0.282555,-0.24662 -0.412315,-0.76362 z m 33.717936,0.36828 c -0.02907,-0.39339 -0.292685,-1.05766 -0.585805,-1.47615 -0.31556,-0.45052 -0.394726,-0.84632 -0.194091,-0.97032 0.507795,-0.31383 1.143723,1.1225 0.978034,2.20903 -0.09723,0.63763 -0.162761,0.71616 -0.198138,0.23744 z m 32.285108,0.30368 c -0.391121,-0.39112 -0.212344,-3.0255 0.307238,-4.52731 0.468821,-1.3551 0.478854,-1.3621 0.252772,-0.17639 -0.129487,0.67909 -0.242316,1.79034 -0.250729,2.46944 -0.01337,1.07924 0.08607,1.22389 0.789703,1.1487 0.702403,-0.0751 0.757023,0.004 0.428563,0.61736 -0.374732,0.70018 -1.079537,0.91621 -1.527547,0.4682 z m 25.675807,-0.55856 c 0.13228,-0.43657 0.26986,-1.1886 0.30573,-1.67118 0.0425,-0.5712 0.31147,-0.92086 0.77077,-1.00184 l 0.70556,-0.1244 -0.70556,0.58704 c -0.69845,0.58114 -0.69757,0.58534 0.0882,0.4175 1.02878,-0.21974 1.00333,0.0272 -0.0916,0.88841 -1.11781,0.87927 -0.79647,1.45306 0.65431,1.1683 0.8322,-0.16335 0.97946,-0.12542 0.58378,0.15033 -0.29105,0.20283 -0.98425,0.37121 -1.54045,0.37418 -0.88567,0.005 -0.98141,-0.0932 -0.77078,-0.78834 z m 40.05845,0.4419 c 0,-0.36679 5.64575,-2.58666 5.90902,-2.32339 0.10233,0.10233 -0.19315,0.33102 -0.65662,0.50821 -0.46347,0.17719 -1.83487,0.72613 -3.04754,1.21988 -1.21267,0.49374 -2.20486,0.76163 -2.20486,0.5953 z m 30.8638,-1.14746 c -0.22068,-1.4779 0.23952,-3.43958 0.80691,-3.43958 0.35318,0 1.13762,0.75205 1.13762,1.09064 0,0.13419 -0.41381,0.34784 -0.91957,0.47478 -0.8675,0.21773 -0.90624,0.31978 -0.68394,1.80213 0.1296,0.86424 0.15626,1.57134 0.0592,1.57134 -0.097,0 -0.27714,-0.67469 -0.40027,-1.49931 z m -172.920325,0.57917 c -0.09492,-0.24737 -0.09821,-0.73685 -0.0073,-1.08773 0.105033,-0.40537 0.180222,-0.27354 0.206224,0.36157 0.0259,0.6326 0.202807,0.94433 0.481895,0.84915 0.242535,-0.0827 0.402731,-0.5325 0.355991,-0.99953 l -0.08498,-0.84916 0.338196,0.79375 c 0.419125,0.98369 0.862297,1.04727 0.611366,0.0877 -0.101549,-0.38832 -0.04069,-0.61708 0.135244,-0.50834 0.175933,0.10873 0.319878,0.55874 0.319878,1.00002 0,0.66178 -0.191283,0.80233 -1.091967,0.80233 -0.600582,0 -1.169633,-0.20239 -1.264558,-0.44976 z m 129.387315,-0.40417 c -0.46814,-0.43733 -0.74692,-0.89938 -0.61952,-1.02677 0.12739,-0.1274 0.52992,0.0383 0.89451,0.36827 0.62729,0.56769 0.67299,0.56126 0.85108,-0.11976 0.18993,-0.72631 0.9598,-1.02059 0.9598,-0.36688 0,0.19403 -0.14552,0.35278 -0.32338,0.35278 -0.17785,0 -0.45566,0.35719 -0.61736,0.79375 l -0.29398,0.79375 z m 47.86436,-0.055 c 0.63365,-0.59957 1.47752,-1.09013 1.87527,-1.09013 0.39775,0 1.04862,-0.17417 1.44636,-0.38704 0.56178,-0.30065 0.68936,-0.28556 0.57163,0.0676 -0.0834,0.25007 -0.69703,0.51621 -1.36373,0.59143 -0.6667,0.0752 -1.76781,0.53534 -2.4469,1.0225 l -1.23473,0.88574 z m -172.905667,0.42898 c -0.124076,-0.12408 -0.207179,-0.6357 -0.184671,-1.13694 0.03308,-0.73676 0.07469,-0.77618 0.217199,-0.20579 0.09695,0.38806 0.33361,0.80478 0.525907,0.92604 0.223434,0.14091 0.226464,0.29661 0.0084,0.43138 -0.187679,0.116 -0.442753,0.10938 -0.56683,-0.0147 z m 90.644117,-0.33489 c -0.12234,-0.31881 -0.13932,-0.66277 -0.0377,-0.76435 0.10158,-0.10158 0.18469,5.2e-4 0.18469,0.22688 0,0.22637 0.2475,0.41158 0.54999,0.41158 0.30249,0 0.45187,0.15875 0.33196,0.35277 -0.32547,0.52662 -0.77805,0.42683 -1.0289,-0.22688 z m 20.25529,0.47956 c 0.36571,-0.38734 3.96126,-2.72179 4.18059,-2.71428 0.40318,0.0138 -1.48651,1.40207 -2.94587,2.16419 -0.77611,0.4053 -1.33174,0.65285 -1.23472,0.55009 z m -83.282448,-0.81424 c -0.211279,-0.25458 -0.310078,-0.74831 -0.219551,-1.09718 0.12925,-0.49809 0.173386,-0.46385 0.205521,0.15944 0.02251,0.43656 0.268005,0.79375 0.545553,0.79375 0.277548,0 0.573426,-0.35719 0.657514,-0.79375 l 0.152884,-0.79375 0.04804,0.79375 c 0.02642,0.43656 0.217487,0.79375 0.424593,0.79375 0.219607,0 0.286106,-0.33083 0.159543,-0.79375 -0.188041,-0.6878 -0.165117,-0.71097 0.171708,-0.1736 0.213794,0.34109 0.303096,0.7587 0.198448,0.92802 -0.333541,0.53968 -1.943978,0.66561 -2.344254,0.18332 z m 38.885305,-0.16163 c -0.02907,-0.49477 -0.229464,-1.07619 -0.445322,-1.29205 -0.215858,-0.21586 -0.321829,-0.60437 -0.235497,-0.86337 0.266178,-0.79854 1.039326,1.05068 0.878957,2.10231 l -0.145281,0.95269 z m 41.227453,0.45861 c 0.003,-0.14552 0.22576,-0.89958 0.4952,-1.67569 0.48377,-1.39349 1.61615,-2.16091 1.61615,-1.09528 0,0.33411 -0.20043,0.46705 -0.51955,0.34459 -0.38662,-0.14836 -0.57868,0.17039 -0.75064,1.2458 -0.1271,0.79484 -0.36955,1.44516 -0.53878,1.44516 -0.16923,0 -0.3053,-0.11906 -0.30238,-0.26458 z M 16.091625,140.01224 c -0.231958,-0.92419 0.43516,-4.2977 0.907623,-4.58969 0.152681,-0.0944 0.04323,0.62795 -0.243226,1.60514 -0.606111,2.06764 -0.407606,2.96328 0.598452,2.70019 0.590522,-0.15442 0.641105,-0.0808 0.336078,0.48915 -0.503983,0.9417 -1.337986,0.83488 -1.598927,-0.20479 z m 33.024285,0.35812 c -0.604273,-0.7281 -0.135594,-1.33855 0.688904,-0.89729 0.443809,0.23752 0.695558,0.23131 0.779071,-0.0192 0.06786,-0.20358 0.404876,-0.26213 0.748923,-0.1301 0.795874,0.3054 0.572142,1.03505 -0.31738,1.03505 -0.370918,0 -0.854848,0.11732 -1.075397,0.2607 -0.22055,0.14339 -0.591404,0.0313 -0.824121,-0.24913 z m 80.42373,0.42513 c 0.097,-0.10021 0.93105,-0.75481 1.8534,-1.45466 1.67597,-1.27166 1.67746,-1.27201 2.38125,-0.56822 0.95835,0.95835 0.90583,1.52852 -0.0895,0.97181 -0.43657,-0.24418 -0.88714,-0.57054 -1.00128,-0.72525 -0.11414,-0.1547 -0.42008,-0.0252 -0.67986,0.28785 -0.25979,0.31302 -0.96015,0.81697 -1.55636,1.11989 -0.59622,0.30293 -1.00466,0.46879 -0.90764,0.36858 z m -93.336584,-1.08505 c -0.115059,-0.29984 -0.134812,-0.83225 -0.0439,-1.18313 0.130942,-0.50536 0.173808,-0.47298 0.206224,0.15578 0.04221,0.81867 1.094833,1.15483 1.104659,0.35278 0.0039,-0.31533 0.09419,-0.30074 0.317049,0.0512 0.250404,0.39546 0.34529,0.3608 0.482842,-0.17639 0.145068,-0.56653 0.17744,-0.54743 0.212117,0.12519 0.02419,0.46926 -0.163607,0.79375 -0.459391,0.79375 -0.275173,0 -0.750085,0.0958 -1.05536,0.21299 -0.327773,0.12578 -0.640705,-0.0102 -0.764244,-0.33217 z m 81.369994,-0.43938 c 0.0169,-0.41097 0.10052,-0.49456 0.21313,-0.21314 0.10191,0.25466 0.0894,0.55893 -0.0278,0.67616 -0.11723,0.11722 -0.20061,-0.0911 -0.18529,-0.46302 z m 46.69428,0.17193 c -0.13143,-0.21265 -0.0217,-0.60279 0.24376,-0.86699 0.57462,-0.57181 9.49504,-3.78636 9.76317,-3.51824 0.28711,0.28712 0.18037,0.33222 -4.62073,1.95246 -4.5901,1.54903 -5.30613,1.95228 -4.44034,2.50066 0.38821,0.24589 0.36597,0.30903 -0.11037,0.31334 -0.3281,0.003 -0.70407,-0.16858 -0.83549,-0.38123 z M 57.680988,139.24981 c -0.803762,-0.32698 -0.0798,-1.19044 0.810711,-0.96693 0.522662,0.13118 0.845164,0.0582 0.845164,-0.19131 0,-0.29833 0.189763,-0.30188 0.728334,-0.0136 0.585615,0.31341 0.64557,0.48951 0.305972,0.8987 -0.304807,0.36727 -0.547875,0.40475 -0.873316,0.13466 -0.313859,-0.26048 -0.520456,-0.2618 -0.67957,-0.004 -0.242326,0.39209 -0.458064,0.41919 -1.137295,0.14287 z m 18.236431,-0.81048 c 0,-1.27704 0.468189,-1.6189 1.206281,-0.88081 0.668634,0.66864 0.6927,0.93657 0.134274,1.49499 -0.747172,0.74717 -1.340555,0.47531 -1.340555,-0.61418 z m 1.058333,0 c 0,-0.18258 -0.15875,-0.43007 -0.352778,-0.54999 -0.194027,-0.11991 -0.352777,0.0295 -0.352777,0.33196 0,0.30249 0.15875,0.54999 0.352777,0.54999 0.194028,0 0.352778,-0.14938 0.352778,-0.33196 z m 95.426388,0.68474 c -0.33433,-0.54096 0.18169,-1.13179 0.78595,-0.89991 0.29601,0.11359 0.72184,0.0541 0.94629,-0.13216 0.57675,-0.47867 1.41618,0.13283 1.14662,0.83529 -0.17741,0.46231 -0.36676,0.50281 -0.93335,0.19958 -0.48017,-0.25698 -0.71079,-0.26192 -0.71079,-0.0152 0,0.46746 -0.9476,0.47699 -1.23472,0.0124 z M 26.922229,137.99836 c -0.02251,-0.71615 -0.199672,-1.40021 -0.3937,-1.52013 -0.448701,-0.27731 -0.45966,-0.88194 -0.01598,-0.88194 0.412813,0 0.849729,2.15488 0.618726,3.05157 -0.09247,0.35893 -0.186533,0.0666 -0.209041,-0.6495 z m 117.792251,0.50835 c 0.003,-0.33955 0.13605,-0.82332 0.29573,-1.07504 0.39605,-0.62435 1.27242,0.40749 0.98413,1.15874 -0.28326,0.73816 -1.28647,0.67255 -1.27986,-0.0837 z m 1.05294,-0.24377 c 0,-0.0856 -0.15875,-0.25368 -0.35278,-0.3736 -0.19403,-0.11991 -0.35278,-0.0499 -0.35278,0.15557 0,0.20548 0.15875,0.3736 0.35278,0.3736 0.19403,0 0.35278,-0.07 0.35278,-0.15557 z m 9.38874,0.0451 c -0.29008,-1.08165 -0.26713,-1.30062 0.13626,-1.30062 0.19402,0 0.35277,0.42148 0.35277,0.93662 0,0.91427 0.0168,0.92138 0.70556,0.2981 0.40012,-0.3621 0.70555,-0.46213 0.70555,-0.23107 0,0.2241 0.14389,0.40746 0.31976,0.40746 0.17586,0 0.24431,-0.35719 0.15211,-0.79375 -0.15007,-0.7106 -0.12551,-0.72769 0.23439,-0.1631 0.61368,0.9627 0.25488,1.44801 -1.13634,1.53701 -1.03663,0.0663 -1.30028,-0.0575 -1.47006,-0.69065 z m -53.22138,0.0327 c 1.12221,-0.54122 0.98431,-0.98055 -0.30778,-0.98055 -0.9551,0 -1.04119,-0.0727 -0.64756,-0.547 0.52817,-0.6364 2.8512,-0.57279 3.06678,0.084 0.20803,0.63374 -1.21112,1.87734 -2.11144,1.85026 l -0.79375,-0.0239 z M 138.024,138.0988 c -0.47777,-0.89274 -0.46465,-1.46642 0.0147,-0.64301 0.20006,0.34363 0.51273,0.5327 0.69483,0.42015 0.18211,-0.11254 0.3311,-0.0459 0.3311,0.14815 0,0.70215 -0.67876,0.75088 -1.04064,0.0747 z m 3.93455,0.21459 c -0.9318,-0.42574 -0.94981,-1.7615 -0.0261,-1.93741 0.41161,-0.0784 0.62502,0.22096 0.75194,1.05473 0.0975,0.6403 0.15633,1.18414 0.13082,1.20854 -0.0255,0.0244 -0.411,-0.12225 -0.85664,-0.32586 z m 0.28109,-0.95322 c 0,-0.19402 -0.15875,-0.35277 -0.35278,-0.35277 -0.19403,0 -0.35278,0.15875 -0.35278,0.35277 0,0.19403 0.15875,0.35278 0.35278,0.35278 0.19403,0 0.35278,-0.15875 0.35278,-0.35278 z m 36.33611,1.08394 c 0,-0.17994 0.39149,-0.63512 0.86998,-1.0115 0.47849,-0.37638 0.7563,-0.80711 0.61736,-0.95717 -0.13894,-0.15007 0.19724,-0.16478 0.74708,-0.0327 0.6557,0.15751 0.92167,0.1139 0.77293,-0.12677 -0.12472,-0.2018 -0.45553,-0.36691 -0.73512,-0.36691 -0.27959,0 -0.50834,-0.15875 -0.50834,-0.35278 0,-0.55005 0.53874,-0.41628 1.18081,0.29321 0.62557,0.69124 0.45852,1.11304 -0.44586,1.12574 -0.6812,0.01 -2.51203,1.38438 -1.85829,1.39543 0.25529,0.004 0.77123,-0.1565 1.14653,-0.35735 0.39261,-0.21012 0.68236,-0.22614 0.68236,-0.0377 0,0.1801 -0.2511,0.42381 -0.55802,0.54158 -0.83727,0.32129 -1.91142,0.25777 -1.91142,-0.11304 z M 19.691197,137.83374 c -0.134795,-0.41864 -0.477164,-0.85022 -0.760819,-0.95907 -0.557834,-0.21406 -0.714296,-0.9256 -0.203533,-0.9256 0.461842,0 1.51904,1.7399 1.352787,2.22637 -0.07884,0.2307 -0.25364,0.0769 -0.388435,-0.3417 z m 3.689607,-0.52535 c -0.27604,-0.65061 -0.567081,-1.302 -0.646759,-1.44752 -0.07968,-0.14552 0.03104,-0.26458 0.24604,-0.26458 0.457391,0 1.153829,1.65605 1.005039,2.38987 -0.05633,0.27784 -0.328279,-0.0272 -0.60432,-0.67777 z m 94.234946,-0.19516 c -0.52204,-1.70095 -0.26939,-1.9536 0.28222,-0.28222 0.2327,0.7051 0.35449,1.3506 0.27065,1.43445 -0.0838,0.0839 -0.33264,-0.43465 -0.55287,-1.15223 z m 32.60485,0.76217 c -0.35035,-0.913 -0.23372,-1.45784 0.16534,-0.77239 0.20005,0.34363 0.53332,0.51997 0.74059,0.39187 0.21391,-0.1322 0.30941,-0.0305 0.22085,0.23512 -0.2361,0.70832 -0.87893,0.79128 -1.12678,0.1454 z M 32.349363,137.45567 c 0.419869,-0.42982 4.442232,-1.94446 4.639616,-1.74708 0.07541,0.0754 -0.699526,0.46245 -1.722085,0.86008 -3.213261,1.2495 -3.296322,1.27476 -2.917531,0.887 z m 13.934722,0.15615 c 0,-0.25866 4.643956,-2.07528 4.829891,-1.88934 0.08672,0.0867 -0.68671,0.47701 -1.718744,0.8673 -1.032033,0.3903 -2.154237,0.81966 -2.493786,0.95415 -0.339548,0.13448 -0.617361,0.16503 -0.617361,0.0679 z m 77.325155,-0.27573 c 0.13131,-0.39394 4.93876,-2.44536 5.73063,-2.44536 0.67979,0 -0.34187,0.62424 -1.74051,1.06346 -0.77611,0.24372 -2.02366,0.75117 -2.77233,1.12766 -0.84836,0.42662 -1.30718,0.52241 -1.21779,0.25424 z m 37.14103,0.008 c -0.17344,-0.28064 -0.13251,-0.35711 0.11068,-0.20681 0.51939,0.321 3.25091,-0.13552 3.25091,-0.54332 0,-0.17802 -0.53745,-0.22285 -1.19432,-0.0996 -0.65688,0.12323 -1.27575,0.0907 -1.37527,-0.0722 -0.0995,-0.16295 0.51731,-0.33745 1.37071,-0.38779 1.16256,-0.0686 1.55166,0.0368 1.55166,0.42015 0,0.66666 -0.30405,0.83356 -2.01782,1.1076 -0.97487,0.15589 -1.50779,0.0874 -1.69655,-0.21801 z m 43.57826,0.24553 c 0,-0.0681 0.17428,-0.62369 0.38729,-1.23472 0.35537,-1.01942 1.3766,-1.58189 1.3766,-0.7582 0,0.19403 -0.19844,0.31309 -0.44098,0.26458 -0.24801,-0.0496 -0.48981,0.33631 -0.55259,0.88195 -0.0614,0.53357 -0.25983,0.97014 -0.44098,0.97014 -0.18114,0 -0.32934,-0.0557 -0.32934,-0.12375 z M 52.281307,137.03741 c 0,-0.15569 0.894423,-0.61257 1.987607,-1.01527 2.321962,-0.85534 2.118889,-0.4834 -0.311912,0.5713 -0.921632,0.39988 -1.675695,0.59967 -1.675695,0.44397 z m 12.170834,-0.505 c 2.146639,-1.02054 3.675644,-1.51303 3.175,-1.02266 -0.307848,0.30153 -1.879057,0.91101 -4.233334,1.64213 -0.388055,0.12051 0.08819,-0.15825 1.058334,-0.61947 z m 20.284722,0.62823 c 0,-0.20265 1.727941,-0.95887 3.175,-1.38953 0.48507,-0.14436 0.80257,-0.17667 0.705556,-0.0718 -0.290636,0.31418 -3.880556,1.66606 -3.880556,1.46132 z m 114.299997,-0.66159 c 0,-1.0753 0.48954,-1.41173 1.05783,-0.72698 0.52897,0.63737 0.21911,1.58811 -0.51759,1.58811 -0.33759,0 -0.54024,-0.32302 -0.54024,-0.86113 z m 1.05833,0 c 0,-0.0856 -0.15875,-0.25368 -0.35277,-0.37359 -0.19403,-0.11992 -0.35278,-0.0499 -0.35278,0.15556 0,0.20548 0.15875,0.3736 0.35278,0.3736 0.19402,0 0.35277,-0.07 0.35277,-0.15557 z m -179.916661,0.0252 c 0,-0.58045 0.633368,-1.11774 0.947413,-0.8037 0.107203,0.10721 -0.06211,0.45194 -0.376249,0.76608 -0.493202,0.49321 -0.571164,0.49834 -0.571164,0.0376 z m 50.447223,0.38012 c 0.290636,-0.31418 3.880556,-1.66605 3.880556,-1.46132 0,0.20265 -1.727941,0.95887 -3.175,1.38953 -0.48507,0.14436 -0.80257,0.17667 -0.705556,0.0718 z m 7.80977,-0.0632 c 0.308441,-0.30844 4.978735,-1.9795 5.124616,-1.83362 0.0795,0.0795 -0.981671,0.56199 -2.358157,1.07221 -2.470313,0.91566 -3.091738,1.08669 -2.766459,0.76141 z m 105.472818,-0.38056 c -0.0225,-0.39775 -0.23142,-0.91369 -0.46426,-1.14652 -0.32925,-0.32926 -0.3268,-0.42334 0.0111,-0.42334 0.54783,0 0.87529,0.82192 0.65941,1.65509 -0.14261,0.55039 -0.17092,0.53869 -0.20622,-0.0852 z m 1.85974,0.0416 c -0.10591,-0.276 -0.12226,-0.87055 -0.0363,-1.32123 0.14,-0.73423 0.16123,-0.71856 0.20428,0.15074 0.03,0.60581 0.24677,0.97014 0.57721,0.97014 0.33217,0 0.5444,-0.36117 0.57009,-0.97014 0.0309,-0.73322 0.0824,-0.79784 0.21063,-0.26459 0.29174,1.2129 0.92695,1.54682 0.67109,0.35278 -0.18298,-0.85391 -0.15312,-0.93694 0.15458,-0.42989 0.63348,1.04394 0.25896,1.75042 -1.00075,1.88775 -0.76773,0.0837 -1.22317,-0.0429 -1.35081,-0.37556 z m 17.6533,0.001 c -0.37358,-0.27317 -0.55665,-0.61927 -0.40682,-0.7691 0.14984,-0.14984 0.53702,-0.008 0.8604,0.31553 0.7625,0.76251 0.42731,1.0977 -0.45358,0.45357 z M 58.373131,135.91725 c -0.02734,-0.36291 0.138631,-0.7678 0.368818,-0.89974 0.230188,-0.13194 0.300838,-0.10999 0.157004,0.0488 -0.143838,0.15878 -0.100101,0.48319 0.0972,0.72092 0.250095,0.30134 0.217604,0.48638 -0.107297,0.61106 -0.276077,0.10594 -0.486276,-0.0901 -0.515722,-0.48103 z m 33.14561,0.389 c 0.767475,-0.48206 3.448678,-1.43695 3.448678,-1.22821 0,0.1847 -1.99505,1.04044 -3.205727,1.37503 -0.706522,0.19525 -0.747822,0.1703 -0.242951,-0.14682 z m 15.922539,-0.18322 c -0.10247,-0.26704 -0.11193,-0.77261 -0.021,-1.1235 0.1342,-0.51793 0.17299,-0.49254 0.20622,0.13497 0.0591,1.11557 0.69744,1.34982 1.07988,0.39626 0.24481,-0.61041 0.33307,-0.66064 0.34979,-0.19905 0.0123,0.33954 0.17613,0.61736 0.36407,0.61736 0.18794,0 0.25533,-0.27782 0.14975,-0.61736 -0.18151,-0.58378 -0.17027,-0.58363 0.20656,0.003 0.21917,0.34108 0.3162,0.75332 0.2156,0.91609 -0.30759,0.49769 -2.35013,0.39555 -2.55086,-0.12756 z m 30.59288,-0.027 c 0.0169,-0.41096 0.10052,-0.49456 0.21313,-0.21313 0.10191,0.25466 0.0894,0.55893 -0.0278,0.67615 -0.11723,0.11723 -0.20061,-0.0911 -0.18529,-0.46302 z m 12.34722,-0.35277 c 0.0169,-0.41097 0.10052,-0.49456 0.21313,-0.21314 0.10191,0.25466 0.0894,0.55893 -0.0278,0.67616 -0.11723,0.11722 -0.2006,-0.0911 -0.18529,-0.46302 z m 3.63373,-0.0456 c 0.38583,-0.38583 3.50754,-1.51652 3.68819,-1.33587 0.0877,0.0877 -0.14099,0.2661 -0.50831,0.39633 -0.36732,0.13022 -1.20318,0.45146 -1.85746,0.71385 -1.33341,0.53476 -1.69282,0.59609 -1.32242,0.22569 z m 8.15647,-1.15971 c 0.11992,-0.19403 0.28804,-0.35278 0.3736,-0.35278 0.0856,0 0.15557,0.15875 0.15557,0.35278 0,0.19403 -0.16812,0.35278 -0.3736,0.35278 -0.20548,0 -0.27548,-0.15875 -0.15557,-0.35278 z"
       id="path302" /></g></svg>
