<?xml version="1.0" encoding="UTF-8" standalone="no"?>
<!-- Created with Inkscape (http://www.inkscape.org/) -->

<svg
   version="1.1"
   id="svg1"
   width="500"
   height="500"
   viewBox="0 0 500 500"
   xmlns="http://www.w3.org/2000/svg"
   xmlns:svg="http://www.w3.org/2000/svg">
  <defs
     id="defs1" />
  <g
     id="g1">
    <path
       style="display:inline;fill:#000000"
       d="m 288,387.23486 v -0.99222 l 2.75,-1.01253 2.75,-1.01254 9,-2.76716 9,-2.76717 6,-2.97684 6,-2.97685 5,-3.21206 5,-3.21205 5.21224,-4.71145 5.21225,-4.71144 4.56701,-6.86977 4.56702,-6.86978 2.00519,-5.8215 2.00519,-5.8215 1.0118,-10 1.01181,-10 0.98092,-3.70778 0.98092,-3.70778 1.01663,-0.62831 1.01663,-0.62831 1.29442,1.07427 1.29442,1.07428 1.10972,5.26181 1.10973,5.26182 1.27485,9.4728 1.27485,9.4728 1.7772,1.7772 L 374,338 l 1.75,-0.0222 1.75,-0.0222 2.42799,-1.86633 2.428,-1.86633 -1.81481,-9.64134 -1.81481,-9.64134 0.58429,-5.66126 0.5843,-5.66127 1.89161,-2.55883 1.89161,-2.55883 3.91091,-1.13664 3.91091,-1.13665 9.35656,-1.06073 9.35655,-1.06074 8.39527,-4.21747 8.39526,-4.21746 0.61912,0.61911 0.61911,0.61912 -0.7086,5.67151 -0.70861,5.6715 -9.46793,10.00264 -9.46793,10.00263 -5.26113,7.12159 -5.26112,7.12159 -3.68327,5.36221 L 390,343.22442 V 350.11221 357 h -0.98818 -0.98818 l -0.64317,-4.02216 -0.64317,-4.02217 -0.80409,-0.49695 -0.80408,-0.49694 -2.47844,2.47844 -2.47845,2.47845 -2.56653,0.64415 -2.56653,0.64416 -3.26959,-1.89215 -3.26959,-1.89216 -1.70623,-4.96134 -1.70623,-4.96133 -0.0591,-7.5 -0.0591,-7.5 -0.93031,-1.47104 -0.93031,-1.47104 -0.73073,0.73073 -0.73073,0.73072 -0.77386,11.53187 -0.77385,11.53187 -3.59238,7.46885 -3.59237,7.46886 -5.17787,4.09287 -5.17786,4.09286 -9.02955,4.26626 -9.02955,4.26625 -8,2.55723 -8,2.55723 -5.5,1.50069 -5.5,1.5007 -4.75,0.68609 -4.75,0.68609 z M 393.81499,321.02661 401,312.05322 v -0.84042 -0.84042 l -6.25,0.41514 -6.25,0.41514 -2.23412,1.41132 -2.23413,1.41132 -0.60375,2.40555 -0.60376,2.40556 1.15878,5.58179 1.15878,5.5818 h 0.74409 0.7441 z m -130.19949,64.16027 -0.55281,-0.89447 10.21865,-4.31471 10.21866,-4.3147 10.5,-5.3351 10.5,-5.33509 7,-4.3885 7,-4.3885 6.26452,-5.69884 6.26452,-5.69883 2.83652,-4.15907 2.83652,-4.15907 2.82331,-7 2.82332,-7 0.0307,-11 0.0307,-11 -3.75765,-14.40802 -3.75764,-14.40802 -1.39555,-3.34002 -1.39555,-3.34003 -4.03827,-15.375 -4.03826,-15.375 -1.21376,-9.60993 -1.21376,-9.60993 1.25873,-12.68927 1.25872,-12.68926 1.39043,-3.32776 1.3904,-3.32776 h 0.40588 0.40589 l -0.0468,16.75 -0.0468,16.75 2.17486,10 2.17486,10 6.48387,20.39686 6.48388,20.39686 1.16494,7.9671 1.16495,7.9671 -0.52736,17.63604 -0.52737,17.63604 -2.09689,5.8849 -2.09689,5.8849 -4.44249,8.14986 -4.44249,8.14985 -4.72166,4.65511 -4.72166,4.65511 -6.0933,2.99188 -6.0933,2.99188 -10.5,3.4908 -10.5,3.4908 -11.5,3.14834 -11.5,3.14835 -1.66584,0.46979 -1.66585,0.46978 z m -45.50543,-8.58239 -2.38993,-1.32463 -1.32463,-2.38993 -1.32464,-2.38993 -0.0317,-6 -0.0317,-6 1.95204,-3.20145 1.95203,-3.20145 3.11774,-1.61225 3.11773,-1.61224 3.98569,-0.055 3.98569,-0.055 2.53581,2.3687 2.53582,2.3687 1.40498,2.70034 1.40499,2.70034 v 4.14853 4.14853 l -1.66996,3.51919 -1.66997,3.51919 -3.08003,1.8782 -3.08004,1.8782 -4.5,-0.0317 -4.5,-0.0317 z M 143,361.90132 l -9.5,-0.66423 -5,-1.19278 -5,-1.19279 -8.2737,-3.67576 L 106.95261,351.5 99.726303,346.12357 92.5,340.74713 l -4.960283,-5.83555 -4.960283,-5.83555 -2.261062,-4.28802 -2.261061,-4.28801 -2.601802,-8 -2.601802,-8 -0.567191,-10.5704 -0.56719,-10.57041 1.748694,-7.92959 1.748694,-7.9296 2.955158,-6.16501 2.955158,-6.16502 5.269159,-4.98335 5.269159,-4.98335 4.917326,-2.49011 4.917326,-2.49011 5.4315,-1.61153 L 112.363,237 h 4.44095 4.44094 l -1.05328,-1.26912 -1.05327,-1.26912 -1.71061,-6.80995 -1.7106,-6.80995 1.21094,-5.41107 1.21095,-5.41107 3.97712,-5.95578 3.97712,-5.95578 4.70337,-3.89717 4.70337,-3.89716 5.5,-3.41638 5.5,-3.41639 2.5,-1.1797 2.5,-1.17971 12.69485,-5.98939 12.69484,-5.98939 4.66781,-4.30264 4.66781,-4.30263 0.86259,-2.2688 0.8626,-2.2688 h 0.79735 0.79734 l 1.92309,3.57095 1.92308,3.57096 3.77079,2.98652 3.7708,2.98652 15.50335,7.4332 15.50335,7.4332 5.28018,3.21291 5.28017,3.21291 4.32042,3.54641 4.32041,3.54642 3.39982,4.71089 3.39983,4.71089 1.66553,3.78911 1.66554,3.78911 v 6.5 6.5 l -1.7271,3.93646 -1.7271,3.93646 -2.54813,3.34076 -2.54812,3.34076 -0.49601,-0.49601 -0.49601,-0.49601 1.47125,-2.28121 1.47125,-2.28121 1.18094,-4.75926 1.18094,-4.75925 -0.65863,-2.74075 -0.65863,-2.74074 -1.77706,-3.55132 -1.77707,-3.55131 -4.30414,-4.30415 -4.30415,-4.30415 -4.3502,-2.99301 -4.3502,-2.99302 -8.67669,-4.01566 -8.67669,-4.01567 -7.5,-2.8934 -7.5,-2.89341 -5.16658,-3.55678 -5.16659,-3.55677 -1.70636,-3.5959 -1.70637,-3.5959 -1.2445,2.9598 -1.24451,2.9598 -3.34743,2.81668 -3.34744,2.81668 -5.03511,2.35992 -5.03511,2.35993 -10,4.1167 -10,4.11671 -6.0164,3.32542 -6.0164,3.32542 -4.61936,4.06613 -4.61937,4.06613 -3.33219,5.19276 -3.33219,5.19277 -0.032,5.5728 -0.032,5.5728 1.75,3.40364 1.75,3.40364 V 240.15364 241 l -4.25,0.0108 -4.25,0.0108 -4.64231,1.40893 -4.64231,1.40894 -5.65153,2.6736 -5.651534,2.6736 -5.784526,5.35545 -5.784525,5.35545 -3.285234,7.12741 -3.285235,7.12741 0.38792,13.27485 0.38792,13.27484 3.704502,7.49555 3.704501,7.49555 5.271181,6.00094 5.27118,6.00094 5.57685,4.13957 5.57684,4.13957 4.76989,2.53617 4.76988,2.53618 7.11864,1.97267 7.11864,1.97268 13.53463,0.6387 13.53463,0.6387 8.5,-1.14976 8.5,-1.14975 6,-1.90043 6,-1.90043 7.4411,-3.18914 7.4411,-3.18913 6.73919,-4.4398 6.73919,-4.4398 8.38599,-7.33154 8.38599,-7.33154 7.83538,-9.33875 7.83537,-9.33875 5.19335,-7.03526 5.19334,-7.03527 5.07075,-8.10463 5.07075,-8.10463 4.05739,-8.06975 4.05739,-8.06976 0.90511,-0.55938 0.9051,-0.55939 0.62176,3.10877 L 280,250.25 v 5.38571 5.38571 l -6.33441,12.23929 -6.33441,12.23929 -3.76921,6 -3.76922,6 -3.05075,4.37845 -3.05076,4.37845 2.30899,9.12155 2.30898,9.12155 2.94998,8.27766 2.94997,8.27766 2.97268,2.97268 2.97269,2.97268 2.42273,0.60807 2.42274,0.60807 2.55911,-0.6423 2.5591,-0.64229 4.30273,-3.96612 L 288.72366,339 h 1.60578 1.60577 l 3.9356,-5.25 3.93561,-5.25 1.55952,-3.78293 1.55952,-3.78292 -1.0345,-2.71708 -1.0345,-2.71707 -2.84163,-10 -2.84163,-10 -3.93827,-13 -3.93827,-13 -2.85185,-9.5 -2.85184,-9.5 -0.0465,-7.69894 -0.0465,-7.69894 1.29164,-1.2927 1.29164,-1.2927 0.8262,1.33681 0.82619,1.33681 2.76432,12.65483 2.76432,12.65483 2.27507,6.5 2.27507,6.5 5.06409,16.5 5.06408,16.5 2.62699,10 2.62699,10 0.43807,1.42658 0.43808,1.42658 4.83098,-4.75834 4.83098,-4.75834 2.27246,-4.85178 2.27245,-4.85178 -1.55673,-5.81646 -1.55674,-5.81646 -5.65954,-16.40461 -5.65954,-16.40462 -3.43064,-13.59538 -3.43064,-13.59539 -0.61972,-5.60046 -0.61972,-5.60045 2.21697,-10.35462 2.21698,-10.35461 1.51843,-3.79493 L 311.21716,199 H 312.10858 313 l -8.2e-4,1.25 -8.2e-4,1.25 -1.58853,7.5 -1.58853,7.5 0.64001,6.47262 0.64001,6.47262 2.37406,10.02738 2.37406,10.02738 5.01553,15 5.01552,15 2.16153,6 2.16154,6 -0.40333,13.5 -0.40332,13.5 -3.27076,6.5 -3.27076,6.5 -4.1777,5.41663 -4.17769,5.41662 -2.92935,1.78155 -2.92934,1.78155 -0.88562,-0.54734 -0.88562,-0.54734 0.22122,-2.65084 0.22121,-2.65083 -0.76979,-4.75 -0.7698,-4.75 h -0.77516 -0.77517 l -0.69314,3.69477 -0.69314,3.69477 -2.45319,4.84114 -2.45319,4.84113 -3.53619,3.91413 -3.53618,3.91414 -5.36361,3.56016 -5.3636,3.56016 -4.53877,0.6221 -4.53878,0.62211 -2.52828,-1.65659 -2.52828,-1.6566 -2.4573,-3.72571 -2.4573,-3.72571 -3.54128,-9.80092 -3.54129,-9.80091 -0.74953,-5.19909 L 252.5,322.5 l 0.0317,-6.75 0.0317,-6.75 h -0.63421 -0.63421 l -4.52607,5.75 -4.52606,5.75 -5.37145,5.54202 -5.37145,5.54203 -11.16125,7.70797 L 209.1775,347 h -0.51708 -0.51708 l -5.82167,3.4586 -5.82167,3.45859 -6.72738,2.5243 -6.72738,2.52429 -6.77262,1.44839 -6.77262,1.44838 -8.5,0.3515 -8.5,0.35149 z m 136.07786,-30.34388 -3.40053,-2.50883 -3.42736,-1.13113 -3.42736,-1.13113 0.66213,-2.14317 0.66213,-2.14318 1.54326,-5.7247 1.54326,-5.72471 -0.58588,-1.52678 -0.58588,-1.52678 -3.78081,-1.71886 -3.78082,-1.71886 -0.41027,-0.27325 -0.41026,-0.27326 1.82221,-6.01836 1.82222,-6.01836 1.26621,-1.05087 1.26622,-1.05086 3.32184,1.68341 3.32183,1.68342 1.75,1.5344 1.75,1.5344 v 2.30799 2.30799 L 278,306 l -2,5.07404 v 0.36752 0.36752 l 5.54425,3.12898 5.54425,3.12898 0.54847,1.42929 0.54847,1.42929 -1.62366,4.88837 -1.62365,4.88837 -1.22988,1.68195 -1.22987,1.68196 z m -128.87605,-10.68658 -4.29819,-2.12755 -2.37815,-4.69305 -2.37815,-4.69306 -1.57366,-6.07294 L 138,297.21131 v -8.67304 -8.67305 l -1.75,0.50787 -1.75,0.50787 -4,0.9989 -4,0.99891 -8.38016,0.70109 -8.38016,0.7011 0.43584,-1.30753 0.43584,-1.30752 10.44432,-2.15471 10.44432,-2.1547 6.35775,-2.21416 6.35775,-2.21416 5.67827,-3.85604 5.67828,-3.85604 3.7351,-4.13432 3.7351,-4.13431 -1.05631,-1.97374 -1.05631,-1.97373 -2.45753,-1.61024 -2.45753,-1.61023 -2.48822,0.6245 -2.48822,0.6245 -3.3311,3.3311 -3.3311,3.3311 -2.17201,6.90464 -2.17202,6.90463 0.44701,-6 0.44701,-6 2.0417,-5.92009 2.0417,-5.9201 2.46123,-4.19978 2.46124,-4.19978 3.63133,-1.72318 3.63132,-1.72317 3.45048,0.64731 3.45047,0.64731 2.01518,3.19574 2.01519,3.19574 -0.41809,7 -0.41809,7 -2.5158,5.90619 -2.51579,5.9062 -3.21667,3.28983 -3.21667,3.28984 -6.96331,2.73196 -6.96331,2.73196 -0.54957,0.88921 -0.54956,0.88922 1.2396,6.68279 1.23961,6.6828 5.20877,5.25 5.20877,5.25 h 4.36874 4.36874 l 4.53344,-1.68436 4.53343,-1.68436 4.14896,-2.79417 4.14896,-2.79416 2.99292,-3.77886 2.99292,-3.77887 2.80273,-5.71466 2.80273,-5.71467 -0.51084,-0.51084 -0.51084,-0.51085 -3.42717,0.9829 L 183.5132,280 h -2.30205 -2.30206 l -2.5578,-2.55781 -2.55781,-2.5578 0.36507,-8.03894 0.36506,-8.03893 2.91308,-2.50572 2.91308,-2.50573 3.57511,0.55857 3.57512,0.55857 3.10598,3.5439 3.10597,3.54389 h 1.18948 1.18948 l 2.45454,-2.45455 L 201,257.09091 v -6.45636 -6.45636 l 1.90467,-6.11972 1.90467,-6.11972 2.64622,-3.46938 L 210.10178,225 h 2.49686 2.49686 l 2.45225,2.64602 2.45225,2.64603 0.0927,2.60397 0.0927,2.60398 -0.16826,4.25 -0.16827,4.25 h 1.03013 1.03013 l 5.0454,-6.23553 5.0454,-6.23553 v -2.69937 -2.69937 l -0.93804,-2.46724 -0.93805,-2.46724 -3.17422,-3.24719 -3.17423,-3.24719 0.68628,-6.06591 0.68628,-6.06591 0.485,-0.78476 L 226.11803,201 h 1.33674 1.33674 l 3.0141,4.75 3.01411,4.75 1.08456,4 1.08457,4 0.006,4.20078 0.006,4.20078 -1.09697,5.29922 -1.09698,5.29922 -3.3333,7 -3.33331,7 -3.81972,3.66353 -3.81972,3.66352 -4.61389,2.83648 -4.6139,2.83647 -7.6753,5.48206 -7.67529,5.48206 -0.51701,2.51794 -0.517,2.51794 -1.44358,6.20464 -1.44359,6.20464 -3.20493,6.70947 -3.20493,6.70948 -5.46882,5.90697 -5.46882,5.90697 -4.79322,2.42892 -4.79323,2.42891 -5.28325,-7.9e-4 -5.28324,-7.9e-4 z m 64.17002,-74.15689 2.07248,-2.78604 -1.07428,-1.71396 -1.07429,-1.71397 -2.24573,-0.33238 -2.24574,-0.33237 -2.40213,2.25669 L 205,244.34863 v 1.25426 1.25425 l 1.62465,1.62465 1.62464,1.62464 2.02503,-0.30321 2.02503,-0.30322 z m 144.87817,39.2564 -4.25,-1.88836 8.1e-4,-1.791 8.2e-4,-1.79101 1.89249,-5 1.89248,-5 2.02993,-0.30949 2.02992,-0.30949 4.1255,2.10467 4.12549,2.10467 0.50271,1.31002 0.5027,1.31003 -2.4964,5.64479 -2.49639,5.6448 -1.80503,-0.0706 -1.80503,-0.0706 z m 30.56431,-7.66017 -3.68569,-1.53264 -0.49013,-1.27726 -0.49013,-1.27727 2.10386,-5.71122 2.10386,-5.71122 1.29025,-0.49511 1.29024,-0.49512 4.54836,1.73703 4.54835,1.73704 0.59098,2.35463 0.59097,2.35463 -2.35761,4.75315 L 397.5,279.5 l -2,0.17142 -2,0.17142 z m -166.07189,-4.22421 -2.75758,-1.76781 -0.62315,-0.62315 -0.62315,-0.62316 2.28666,-5.78593 2.28665,-5.78594 0.83406,-0.93999 0.83406,-0.93998 3.51002,1.6738 3.51001,1.67381 v 2.93328 2.93327 l -1.96446,4.5829 L 229.07107,276 227.78554,275.9269 226.5,275.8538 Z M 371,253.15499 v -0.84501 l 1.98832,-1.79941 1.98832,-1.79941 6.01168,-8.2743 6.01168,-8.2743 -0.0385,-0.83128 -0.0385,-0.83128 -3.21148,-2.01469 -3.21148,-2.01469 -0.29764,-5.10198 -0.29763,-5.10197 2.63653,-3.13333 L 385.17779,210 h 1.75612 1.75611 l 1.68586,1.86285 1.68586,1.86286 0.60208,5.08355 0.60207,5.08355 2.61705,0.3036 2.61706,0.30359 0.32676,2.30504 0.32677,2.30504 -1.19921,1.44496 L 396.75511,232 h -3.14392 -3.14393 l -3.18015,5.25 -3.18016,5.25 -5.36338,5.75 -5.36337,5.75 H 372.1901 371 Z M 387.65492,219.54313 387.06277,218 H 385.53138 384 v 1.42668 1.42667 l 1.75,0.38926 1.75,0.38925 0.37354,-0.2728 0.37354,-0.2728 z M 287.625,234.875 287,231.75 v -3.89996 -3.89997 l 3.56286,-7.0749 3.56287,-7.0749 3.53089,-8.65014 3.5309,-8.65013 6.94868,-21.5 6.94869,-21.5 3.55275,-9.5 3.55274,-9.5 4.44498,-6.69491 4.44498,-6.6949 3.03655,-2.5551 L 337.15345,112 h 1.44803 1.44802 l 1.05901,2.75 1.05901,2.75 0.95817,5.87474 0.95816,5.87474 -0.56492,0.56493 -0.56493,0.56493 -1.5337,-2.18967 L 339.88659,126 h -1.46961 -1.46961 l -4.22369,4.25 -4.22368,4.25 -3.14827,6 -3.14826,6 -4.67985,15.5 -4.67984,15.5 -6.75981,21 -6.7598,21 -4.30712,9.25 -4.30712,9.25 H 289.47997 288.25 Z M 160,233 l -2,-2 v -2.57157 -2.57156 l 2.25,0.18226 2.25,0.18225 1.18261,-0.11069 1.18261,-0.11069 0.63478,-2 0.63478,-2 h 1.95761 1.95761 l 0.6,-3 0.6,-3 h 0.75842 0.75843 l 0.45837,2.39785 0.45838,2.39784 -0.4687,3.19345 -0.4687,3.19344 -3.71826,3.90871 L 165.30967,235 H 163.65484 162 Z m -19.69447,-11.04519 0.43128,-6.54518 1.64391,-3.17898 1.64391,-3.17897 5.23769,-3.90638 5.23768,-3.90638 0.78068,0.45852 0.78069,0.45852 -0.61489,3.67202 -0.6149,3.67202 -0.98324,3.21939 -0.98324,3.2194 -4.18255,3.25364 -4.18255,3.25365 -0.68153,1.02696 -0.68154,1.02696 -1.63134,2 -1.63135,2 z M 182,213.1815 v -3.8185 l 1.48103,-4.98716 1.48103,-4.98716 6.39619,-5.65045 6.39619,-5.65045 0.62278,0.62277 0.62278,0.62278 -0.006,2.58334 -0.006,2.58333 -1.09383,3.93978 -1.09383,3.93979 -6.4006,6.55979 L 184,215.49915 V 216.24957 217 h -1 -1 z m 1.14375,-62.2842 -3.35625,-1.00955 -3.85715,-2.55254 -3.85714,-2.55254 -2.26157,-4.64133 -2.26157,-4.64134 0.0691,-5.5 0.0691,-5.5 2.08276,-4.0669 2.08276,-4.0669 1.59726,-1.3256 1.59725,-1.3256 0.48896,0.48896 0.48896,0.48896 -1.61867,3.87403 -1.61867,3.87403 0.4335,5.2275 0.43351,5.22751 2.68578,3.87559 2.68579,3.87559 3.79775,2.13445 3.79775,2.13446 4.10028,0.65566 4.10027,0.65566 5.74051,-2.62809 5.7405,-2.62809 0.372,0.372 0.372,0.372 -3.1667,3.09603 -3.16669,3.09603 -3.1709,1.50469 -3.1709,1.50469 -3.93668,0.49509 -3.93668,0.4951 z m 1.34098,-16.82777 0.64364,-2.93046 -2.06419,-1.10472 L 181,128.92963 V 127.96482 127 h 2.89159 2.89159 l 0.62746,-2.5 0.62746,-2.5 H 189 h 0.9619 l 0.62746,2.5 0.62746,2.5 H 194.10841 197 v 0.96482 0.96481 l -2.06418,1.10472 -2.06419,1.10472 0.64364,2.93046 0.64364,2.93047 h -0.59302 -0.59303 L 190.98643,135.75945 189,134.51891 187.01357,135.75945 185.02714,137 h -0.59303 -0.59302 z"
       id="path1" />
  </g>
</svg>
