<svg xmlns="http://www.w3.org/2000/svg" version="1.0" viewBox="0 0 2837.000000 3000.000000"
	preserveAspectRatio="xMidYMid meet">
	<g transform="translate(0.000000,3000.000000) scale(0.100000,-0.100000)" stroke="none">
		<path
			d="M13385 29754 c-80 -41 -148 -199 -176 -412 -16 -118 -6 -398 21 -592 36 -265 149 -933 166 -977 8 -23 27 -49 41 -58 37 -25 116 -24 151 1 121 90 190 404 162 750 -14 176 -72 656 -101 834 -41 250 -96 416 -151 454 -28 20 -74 20 -113 0z" />
		<path
			d="M6697 27125 c-53 -18 -80 -46 -115 -118 -89 -181 -113 -449 -72 -811 22 -186 153 -997 171 -1053 33 -102 172 -113 243 -20 57 74 108 273 121 462 7 120 -5 294 -46 630 -58 483 -100 705 -154 819 -42 89 -83 114 -148 91z" />
		<path
			d="M14523 27070 c-48 -19 -123 -206 -144 -358 -6 -42 -15 -94 -21 -114 -8 -28 -7 -61 7 -142 10 -64 16 -141 13 -195 -2 -77 -6 -93 -26 -114 -30 -32 -202 -105 -275 -117 -51 -8 -67 -6 -130 17 -170 60 -263 136 -293 241 -22 76 -12 136 41 240 53 106 70 188 56 269 -6 30 -16 62 -22 69 -31 37 -124 -9 -175 -85 -31 -47 -161 -476 -174 -576 -31 -228 -245 -386 -525 -388 -220 -2 -335 117 -337 348 -1 89 10 139 53 237 16 36 29 73 29 82 0 9 -16 20 -41 27 -51 16 -112 -3 -141 -42 -25 -33 -142 -366 -173 -494 -36 -142 -51 -307 -37 -379 23 -115 95 -216 208 -291 154 -103 329 -117 549 -44 160 53 277 141 428 322 38 44 54 57 76 57 23 0 31 -7 46 -39 24 -54 48 -74 135 -114 175 -81 345 -70 555 36 111 55 245 155 290 217 52 71 110 255 146 465 26 150 37 497 20 638 -13 111 -43 200 -74 222 -24 17 -33 18 -64 5z" />
		<path
			d="M19410 25379 c-146 -77 -377 -199 -515 -271 -777 -407 -1101 -579 -1565 -831 -283 -154 -589 -322 -679 -374 -435 -249 -1345 -848 -1397 -920 -41 -55 -64 -112 -89 -219 -14 -59 -37 -144 -50 -189 -31 -100 -31 -126 -2 -153 49 -47 101 -25 233 95 130 119 594 431 1039 698 444 267 1411 813 1660 937 99 50 277 142 395 206 269 145 516 264 689 333 194 78 233 118 359 359 91 173 213 470 194 470 -4 0 -126 -64 -272 -141z" />
		<path
			d="M13738 24848 c-21 -17 -104 -144 -161 -246 -61 -109 -116 -231 -179 -400 -112 -299 -114 -357 -24 -887 13 -82 52 -328 86 -545 86 -554 170 -1081 320 -1995 252 -1539 403 -2515 421 -2724 15 -176 6 -588 -15 -691 -51 -245 -167 -482 -325 -665 -124 -143 -399 -380 -925 -795 -506 -400 -602 -478 -673 -551 -121 -123 -137 -154 -179 -344 -21 -95 -37 -141 -80 -223 -66 -127 -71 -172 -23 -201 17 -11 59 -26 94 -35 79 -20 725 -109 1355 -187 833 -103 1118 -155 1450 -266 164 -54 300 -119 359 -169 45 -39 80 -101 81 -143 1 -104 -201 -302 -482 -473 -419 -255 -965 -489 -1733 -741 -922 -304 -1724 -514 -2275 -597 -161 -24 -364 -37 -373 -23 -10 16 -102 819 -202 1758 -121 1145 -247 2100 -287 2178 -28 57 -59 67 -114 38 -95 -51 -200 -188 -419 -546 -151 -246 -138 -210 -131 -358 12 -250 72 -729 187 -1486 100 -659 179 -1315 179 -1481 0 -77 0 -76 -152 -57 -515 67 -1074 264 -1438 508 -226 151 -365 293 -549 558 -309 445 -455 786 -505 1181 -62 486 -30 934 100 1398 50 178 105 322 205 535 49 103 109 240 134 305 25 64 49 125 53 135 6 15 23 7 127 -58 157 -99 505 -272 626 -313 134 -44 220 -55 384 -49 347 12 688 140 900 339 196 183 374 510 498 913 65 210 84 289 108 455 19 127 21 173 16 370 -12 455 -70 711 -357 1575 -221 664 -309 991 -469 1735 -22 102 -44 196 -49 210 -5 14 -13 57 -16 95 -10 91 -43 202 -72 242 -28 37 -76 68 -121 78 -26 5 -37 1 -62 -22 -24 -22 -37 -53 -66 -152 -38 -132 -105 -316 -179 -497 -84 -204 -110 -368 -87 -554 14 -115 141 -619 331 -1310 185 -677 325 -1093 504 -1500 94 -213 99 -228 94 -313 -8 -174 -152 -316 -408 -404 -139 -48 -245 -65 -395 -65 -274 1 -536 83 -775 243 -172 115 -299 258 -398 448 -64 122 -79 163 -152 404 -126 415 -141 501 -315 1707 -142 985 -260 1669 -321 1855 -20 61 -43 118 -52 128 -26 29 -60 21 -85 -20 -12 -21 -42 -67 -66 -103 -52 -76 -224 -463 -251 -565 -44 -164 -65 -324 -64 -490 1 -175 19 -295 109 -730 77 -373 223 -1253 276 -1659 35 -272 48 -587 30 -706 -43 -271 -214 -518 -497 -716 -92 -65 -325 -181 -438 -219 -363 -122 -737 -105 -1041 47 -271 135 -546 428 -664 705 -69 161 -86 254 -111 593 -11 147 -34 345 -50 429 -41 217 -64 475 -95 1089 -32 621 -52 946 -70 1147 -21 222 -56 528 -61 537 -10 16 -34 7 -69 -23 -107 -95 -285 -505 -366 -845 -24 -101 -26 -202 -8 -468 6 -92 8 -206 4 -252 l-7 -83 -81 -55 c-45 -29 -219 -132 -387 -229 -168 -96 -358 -206 -422 -245 -564 -341 -999 -724 -1232 -1084 -106 -165 -146 -257 -277 -646 -112 -330 -128 -396 -135 -552 -6 -120 -5 -126 18 -160 51 -76 154 -119 363 -155 341 -57 806 -59 1190 -4 196 28 271 50 367 110 154 95 232 167 378 349 102 126 146 170 245 246 33 25 148 94 157 94 2 0 3 -44 4 -97 1 -245 166 -742 330 -995 192 -298 462 -527 749 -636 223 -85 414 -117 650 -109 183 7 276 25 435 85 259 97 468 232 668 432 282 281 506 649 649 1070 11 33 24 55 33 55 16 0 172 -242 225 -350 46 -92 45 -121 -11 -225 -262 -490 -469 -986 -599 -1435 -126 -436 -184 -811 -192 -1250 -14 -701 90 -1212 339 -1667 332 -609 846 -1051 1538 -1323 371 -145 888 -263 1353 -309 76 -8 141 -16 144 -19 3 -4 9 -65 14 -137 15 -224 119 -1092 164 -1367 27 -168 26 -173 -49 -192 -124 -31 -1015 -38 -1436 -11 -814 53 -1531 194 -2089 412 -303 119 -660 314 -881 481 -268 203 -507 492 -659 795 -194 386 -332 843 -401 1322 -61 428 -177 1416 -225 1910 -38 399 -91 794 -122 919 -31 129 -59 166 -123 166 -73 0 -101 -45 -129 -206 -21 -114 -57 -232 -169 -539 -105 -291 -122 -418 -89 -687 12 -94 19 -174 16 -178 -3 -3 -44 -12 -90 -20 -695 -122 -1824 -894 -2172 -1484 -129 -220 -341 -918 -402 -1326 -26 -174 -13 -195 173 -278 174 -79 525 -128 911 -128 367 0 625 52 886 176 188 90 301 180 479 383 182 209 345 371 425 424 41 27 79 47 85 45 12 -4 15 -14 91 -377 59 -281 145 -619 193 -760 187 -544 489 -1005 849 -1294 394 -316 844 -553 1333 -701 474 -143 951 -242 1495 -310 81 -10 385 -35 550 -45 427 -26 1097 -4 1677 57 54 5 57 5 62 -18 3 -13 19 -172 36 -354 17 -181 51 -512 75 -735 99 -912 101 -1011 22 -1178 -87 -187 -361 -360 -705 -446 -415 -104 -923 -102 -1327 4 -116 31 -170 51 -324 119 -375 167 -707 210 -1014 132 -456 -117 -837 -546 -1027 -1156 -20 -66 -47 -160 -59 -210 -39 -160 -152 -344 -310 -504 -117 -118 -155 -145 -556 -403 -192 -124 -442 -285 -555 -358 -660 -428 -1270 -773 -1585 -898 -141 -55 -565 -254 -860 -402 -412 -207 -544 -290 -516 -324 27 -32 141 -27 427 19 211 34 746 140 884 175 152 39 311 72 560 115 443 76 731 174 1062 362 147 83 213 127 333 217 193 145 433 362 500 451 161 217 566 658 663 722 32 22 68 4 161 -81 303 -278 797 -514 1311 -625 389 -84 762 -89 1100 -14 69 15 79 20 129 72 174 181 283 466 322 838 15 153 7 404 -15 458 -9 21 -14 45 -12 51 10 26 66 43 181 54 288 26 510 104 695 241 179 132 457 449 629 715 60 92 70 104 74 83 3 -13 15 -82 26 -152 41 -251 117 -476 245 -722 151 -290 297 -488 540 -731 347 -346 728 -576 1160 -700 377 -109 937 -136 1421 -68 543 76 1144 236 1460 389 278 135 289 136 733 13 322 -90 494 -129 642 -148 386 -48 955 4 1360 126 202 61 371 136 575 254 191 110 343 238 510 430 92 106 120 121 131 73 28 -127 55 -161 214 -268 226 -151 521 -258 855 -310 156 -25 450 -30 566 -11 224 37 398 128 574 301 245 241 402 568 515 1080 36 161 49 314 57 660 6 293 -5 485 -37 657 -34 177 -101 369 -141 400 -43 36 -151 12 -177 -39 -5 -10 -26 -66 -46 -126 -20 -59 -52 -140 -72 -179 -20 -39 -54 -123 -76 -187 -22 -64 -59 -161 -83 -216 -76 -176 -82 -330 -23 -570 48 -197 57 -247 68 -383 11 -144 7 -168 -38 -194 -54 -32 -143 -42 -372 -42 -207 -1 -237 1 -370 27 -412 80 -654 161 -744 251 -82 83 -102 239 -52 408 14 47 52 153 85 236 33 82 67 176 75 209 30 114 15 227 -32 252 -38 21 -79 13 -115 -21 -43 -42 -196 -325 -263 -488 -66 -160 -201 -408 -282 -516 -35 -46 -100 -115 -145 -153 -414 -348 -941 -512 -1652 -514 -246 0 -383 10 -586 44 -64 10 -134 19 -155 19 -49 0 -84 9 -84 22 0 5 22 33 49 61 223 235 396 582 502 1004 29 116 31 132 21 186 -13 66 -30 90 -84 118 -74 38 -91 24 -134 -103 -47 -141 -246 -413 -426 -583 -260 -246 -541 -414 -998 -597 -623 -251 -1476 -421 -2110 -422 -517 0 -945 94 -1340 295 -283 144 -463 304 -616 551 -297 478 -511 1436 -679 3043 -19 181 -31 333 -27 336 4 4 93 19 197 34 1765 248 2921 626 4150 1354 66 39 127 71 136 71 9 0 36 -19 60 -41 24 -23 62 -49 84 -59 22 -10 96 -60 165 -111 223 -167 374 -261 625 -390 411 -211 893 -337 1180 -308 134 14 181 28 310 92 301 149 519 437 666 880 42 129 107 365 134 490 13 56 23 80 37 88 25 14 38 -2 38 -46 0 -17 14 -76 31 -130 119 -380 305 -675 573 -904 403 -345 873 -559 1506 -685 353 -70 654 -97 1110 -97 539 0 871 32 1333 127 1019 210 1875 598 2727 1238 329 247 392 323 540 651 121 267 257 525 303 573 46 48 59 112 22 112 -18 0 -217 -99 -350 -173 -133 -75 -285 -171 -420 -266 -398 -280 -647 -424 -955 -551 -266 -110 -563 -224 -717 -275 -134 -44 -554 -152 -682 -175 -379 -68 -780 8 -1161 220 -204 113 -333 213 -494 380 -147 154 -259 323 -424 642 -129 247 -188 418 -212 612 -22 169 12 275 125 395 312 331 1337 664 2530 822 231 31 672 34 839 6 316 -54 610 -166 952 -363 111 -64 157 -77 168 -48 3 9 6 40 6 70 0 99 -81 267 -186 383 -62 69 -403 358 -472 399 -794 482 -1727 596 -2657 327 -488 -142 -778 -311 -1095 -642 -339 -352 -608 -832 -734 -1313 -105 -397 -124 -780 -54 -1100 31 -144 58 -211 204 -510 74 -151 136 -288 137 -305 2 -25 -2 -30 -28 -36 -57 -13 -250 -9 -345 6 -458 75 -973 438 -1283 905 -81 122 -174 310 -210 425 -103 327 -269 1427 -496 3270 -79 639 -165 1415 -158 1421 1 0 64 31 139 66 463 222 684 424 950 868 41 69 99 169 128 223 37 69 57 97 68 95 19 -4 48 -52 99 -168 87 -198 250 -389 443 -520 141 -96 391 -194 588 -231 139 -27 162 -39 162 -85 0 -20 -13 -60 -30 -92 -51 -99 -151 -324 -176 -399 -28 -84 -32 -188 -9 -233 20 -38 72 -56 119 -40 72 23 111 78 226 313 97 200 205 383 244 416 11 9 47 9 163 -3 345 -35 486 -41 938 -40 344 0 513 5 670 18 1267 104 2314 428 3125 969 163 109 425 403 617 692 226 341 381 686 459 1020 26 112 27 381 1 475 -23 84 -103 248 -158 327 -195 274 -534 511 -914 638 -254 85 -573 135 -770 120 -592 -43 -1016 -165 -1481 -427 -680 -383 -1226 -865 -1806 -1593 -350 -441 -537 -701 -604 -841 -34 -73 -64 -120 -85 -139 -32 -26 -37 -27 -104 -21 -270 23 -746 230 -969 420 -76 65 -169 182 -211 265 -39 79 -75 184 -75 221 0 46 -30 143 -58 186 -15 23 -32 50 -37 59 -23 39 -98 -17 -172 -128 -245 -369 -791 -882 -1292 -1214 -161 -107 -271 -163 -322 -163 -47 0 -43 -13 -98 325 -168 1038 -329 2313 -551 4375 -39 360 -97 900 -130 1200 -32 300 -60 561 -62 580 -2 19 -8 35 -14 35 -14 0 -203 -259 -296 -405 -117 -185 -224 -399 -271 -540 -57 -172 -54 -385 8 -695 27 -130 143 -1047 280 -2205 47 -399 124 -1026 170 -1395 47 -368 94 -746 105 -840 11 -93 28 -228 36 -298 18 -143 13 -204 -19 -263 -41 -72 -58 -76 -332 -71 -317 7 -496 35 -731 118 -355 123 -732 403 -983 729 -174 226 -396 656 -508 985 -63 187 -143 477 -193 705 -21 97 -475 2585 -620 3400 -104 583 -249 1451 -339 2025 -87 556 -86 546 -115 612 -22 46 -29 53 -54 53 -15 0 -35 -6 -44 -12z m-10390 -5790 c9 -12 29 -586 33 -961 2 -157 -1 -165 -80 -193 -25 -9 -83 -34 -128 -56 -147 -71 -507 -146 -873 -184 -200 -20 -530 -15 -650 11 -95 20 -239 90 -259 126 -13 24 -13 31 4 68 21 48 151 176 275 272 279 217 810 535 1289 771 333 164 364 176 389 146z m22167 -398 c643 -39 1183 -258 1331 -541 26 -48 29 -64 29 -150 0 -90 -2 -99 -38 -172 -76 -153 -222 -268 -547 -431 -464 -232 -1112 -429 -1815 -550 -102 -18 -709 -87 -975 -111 -562 -51 -1110 -59 -1153 -16 -53 53 415 613 820 983 390 356 752 600 1131 763 290 124 522 192 737 214 201 22 269 23 480 11z m-10934 -1547 c266 -638 492 -1018 794 -1332 264 -276 517 -437 866 -555 389 -131 733 -182 1094 -164 147 7 323 30 415 54 67 17 65 17 84 -2 11 -11 16 -35 16 -82 0 -37 106 -1109 234 -2382 l234 -2315 -30 -75 c-190 -480 -536 -790 -928 -829 -79 -8 -157 -3 -375 24 -163 20 -246 37 -399 82 -131 38 -551 193 -672 248 -111 51 -117 84 -38 230 70 131 254 542 291 650 46 137 51 199 23 303 -22 83 -58 142 -86 142 -25 0 -81 -59 -114 -122 -116 -219 -392 -485 -805 -775 -312 -219 -1100 -548 -1776 -742 -799 -230 -1798 -409 -2375 -428 l-190 -6 -32 29 c-31 28 -33 36 -62 204 -41 244 -67 456 -90 725 -25 290 -45 703 -36 738 3 15 17 34 29 42 34 22 183 60 452 115 1207 245 2298 649 3295 1217 490 280 713 437 940 663 214 212 326 383 414 632 73 207 91 317 91 563 0 275 -31 448 -112 627 -128 285 -274 420 -588 546 -227 91 -368 125 -730 176 -369 52 -758 128 -787 154 -33 28 -43 11 239 401 126 175 228 378 423 841 46 110 82 213 89 253 16 95 59 253 77 288 11 22 21 29 36 27 18 -2 35 -34 89 -165z m-10904 -4343 c22 0 132 -672 133 -813 1 -23 7 -53 15 -67 19 -33 19 -80 0 -107 -21 -30 -132 -102 -245 -158 -248 -125 -574 -219 -885 -256 -144 -18 -523 -18 -640 0 -113 16 -278 55 -333 76 -46 19 -92 66 -92 94 0 10 28 53 63 96 141 177 248 274 492 447 489 347 941 584 1270 667 154 39 155 39 190 29 16 -4 31 -8 32 -8z m3594 -8341 c192 -19 340 -63 520 -155 131 -67 212 -127 309 -231 128 -136 191 -271 194 -414 1 -69 0 -71 -35 -104 -93 -85 -339 -66 -755 59 -378 114 -707 250 -894 370 -36 23 -87 53 -114 65 -68 34 -126 91 -126 126 0 83 232 205 483 255 191 38 275 44 418 29z" />
		<path
			d="M11134 24580 c-24 -9 -62 -56 -88 -107 -21 -41 -177 -453 -245 -643 -86 -244 -103 -322 -108 -505 l-5 -160 236 -1410 c358 -2147 391 -2362 550 -3665 103 -833 131 -1167 141 -1655 10 -462 31 -521 140 -404 75 80 159 276 214 494 44 177 90 478 118 775 27 296 25 1006 -5 1380 -57 710 -124 1180 -292 2050 -113 584 -185 1005 -324 1885 -89 566 -138 959 -171 1375 -8 107 -20 219 -26 249 -6 30 -11 95 -10 144 0 91 -10 131 -46 173 -22 27 -51 35 -79 24z" />
		<path
			d="M7711 24342 c-60 -63 -161 -350 -161 -457 0 -33 13 -96 35 -165 19 -61 35 -127 35 -146 0 -84 -47 -134 -192 -209 -101 -51 -134 -55 -263 -30 -89 17 -134 41 -225 120 -77 66 -90 93 -91 185 -1 56 7 91 42 192 36 103 43 136 43 203 1 129 -33 161 -118 111 -72 -42 -91 -77 -157 -284 -33 -103 -54 -188 -60 -247 -28 -264 -132 -419 -329 -486 -52 -18 -88 -22 -180 -22 -189 0 -289 44 -338 152 -23 49 -26 69 -27 161 0 112 6 137 62 263 20 46 32 85 28 96 -8 25 -96 55 -133 46 -51 -13 -90 -53 -132 -138 -22 -45 -45 -109 -51 -142 -6 -33 -24 -101 -40 -151 -56 -178 -75 -390 -44 -509 44 -165 196 -314 370 -359 175 -46 422 11 615 142 68 47 91 69 120 117 41 71 112 145 137 145 10 0 28 -16 40 -35 13 -19 40 -43 60 -53 21 -11 65 -35 97 -55 124 -76 256 -88 408 -37 197 66 377 195 452 322 89 152 167 578 169 918 1 274 -27 381 -102 388 -27 3 -39 -3 -70 -36z" />
		<path
			d="M26222 24061 c-28 -16 -80 -49 -115 -74 -136 -96 -650 -363 -2032 -1055 -1954 -979 -2570 -1309 -3250 -1745 l-130 -83 -72 -264 c-81 -298 -89 -363 -43 -368 18 -2 40 10 75 41 28 24 68 54 91 65 23 11 270 148 550 303 1845 1022 2395 1318 3214 1731 579 291 955 466 1380 639 172 70 222 97 246 134 9 15 30 76 46 138 35 137 73 221 142 312 61 80 72 115 56 177 -23 85 -67 99 -158 49z" />
		<path
			d="M25167 15229 c-32 -16 -84 -34 -115 -40 -31 -6 -158 -43 -282 -84 -341 -112 -527 -167 -1237 -370 -975 -277 -1762 -514 -2203 -663 -405 -137 -892 -341 -946 -397 -17 -17 -43 -64 -59 -106 -15 -41 -53 -121 -85 -179 -83 -149 -110 -243 -76 -256 17 -7 79 19 128 52 69 48 735 297 1368 513 1212 411 2123 673 3036 870 238 51 252 59 329 181 26 41 69 102 95 135 115 147 156 229 162 325 3 44 2 45 -27 47 -18 2 -54 -10 -88 -28z" />
		<path
			d="M3784 8821 c-233 -146 -761 -387 -1424 -651 -612 -243 -986 -421 -1078 -511 -48 -47 -66 -88 -138 -308 -68 -209 -68 -209 -55 -230 11 -17 32 -6 108 58 50 41 156 92 698 336 940 422 923 415 1150 523 116 55 320 154 455 221 290 144 309 159 395 336 81 166 90 226 42 260 -36 25 -70 17 -153 -34z" />
		<path
			d="M21000 7568 c-165 -63 -761 -199 -1613 -368 -301 -60 -629 -128 -730 -150 -390 -88 -887 -219 -948 -251 -44 -22 -98 -83 -144 -161 -19 -32 -51 -79 -73 -106 -45 -58 -137 -264 -128 -288 8 -20 55 -13 141 23 33 13 326 87 650 164 325 77 831 200 1125 273 528 133 806 197 1274 296 l240 50 73 56 c132 101 329 331 334 389 5 47 -2 85 -17 99 -24 24 -69 18 -184 -26z" />
		<path
			d="M24578 7585 c-86 -22 -233 -95 -330 -165 -168 -120 -431 -421 -563 -642 -71 -119 -185 -345 -253 -498 -112 -254 -152 -417 -152 -620 0 -273 70 -459 247 -657 142 -160 321 -277 518 -341 129 -42 236 -56 374 -49 253 13 391 85 611 318 137 146 168 169 222 169 49 0 114 -50 146 -113 30 -57 32 -156 7 -251 -19 -72 -95 -231 -165 -346 -377 -617 -1422 -1465 -2422 -1966 -407 -204 -844 -355 -1283 -444 -316 -64 -318 -64 -1335 -66 -947 -1 -1006 -3 -1069 -40 -70 -41 -66 -130 7 -168 15 -8 106 -34 202 -59 97 -26 263 -71 370 -102 595 -172 721 -207 885 -244 901 -202 1579 -226 2153 -76 439 116 894 365 1332 731 454 378 1162 1220 1363 1619 326 647 497 1340 497 2010 0 605 -117 1068 -366 1449 -190 290 -355 427 -629 526 -77 28 -106 33 -200 36 -73 2 -129 -1 -167 -11z m-65 -1191 c34 -8 73 -26 87 -38 14 -13 63 -48 110 -79 143 -95 280 -252 280 -323 0 -59 -110 -161 -220 -204 -54 -21 -57 -21 -145 -5 -194 35 -438 139 -544 232 -59 52 -101 117 -101 158 0 92 125 214 275 268 58 21 157 17 258 -9z" />
		<path
			d="M14961 7432 c-18 -10 -48 -37 -65 -60 -17 -22 -50 -64 -73 -94 -23 -29 -73 -108 -111 -175 -149 -259 -236 -352 -320 -340 -24 3 -215 106 -532 286 -490 278 -497 281 -553 281 -78 0 -119 -19 -155 -73 -17 -24 -158 -212 -313 -418 -155 -205 -291 -388 -302 -407 -15 -26 -18 -46 -15 -97 7 -118 -1 -112 528 -417 256 -147 480 -271 498 -274 58 -11 142 3 179 29 18 13 138 167 266 342 127 175 240 323 249 329 24 15 76 -12 413 -214 316 -188 460 -270 588 -331 74 -35 97 -42 155 -43 46 0 77 5 99 17 38 20 150 166 356 463 80 117 182 261 226 320 94 126 108 162 86 224 -35 99 -50 115 -159 165 -139 64 -296 151 -606 339 l-265 160 -70 3 c-54 3 -78 -1 -104 -15z" />
		<path
			d="M7300 6995 c-19 -7 -102 -47 -185 -88 -474 -237 -915 -423 -1865 -784 -794 -301 -1097 -428 -1535 -642 -345 -169 -342 -165 -395 -456 -17 -94 -38 -187 -46 -209 -8 -21 -12 -41 -9 -45 4 -3 25 5 48 18 23 13 65 36 92 51 28 15 412 170 855 345 1368 540 2251 898 2713 1100 122 54 140 71 182 180 27 69 94 174 185 290 62 79 80 116 80 165 0 30 -6 47 -25 65 -27 28 -44 30 -95 10z" />
		<path
			d="M16784 2148 c-17 -18 -56 -71 -87 -118 -107 -163 -210 -273 -297 -314 -52 -24 -81 -31 -150 -34 -101 -5 -186 10 -232 41 -43 29 -46 64 -17 176 21 84 22 88 5 144 -30 103 -63 88 -165 -75 -124 -199 -213 -289 -356 -358 -121 -59 -190 -74 -330 -74 -185 0 -251 23 -519 184 -72 43 -151 83 -176 89 -163 38 -539 -23 -815 -131 -80 -31 -615 -293 -921 -451 -285 -146 -1005 -452 -1514 -642 -288 -108 -469 -167 -715 -235 -234 -65 -300 -90 -352 -134 -46 -39 -44 -73 6 -119 85 -77 229 -76 626 3 409 81 980 253 1443 434 346 135 832 365 1111 526 200 116 453 191 646 193 171 2 298 -40 433 -142 111 -84 150 -102 297 -141 133 -34 193 -37 303 -14 195 40 346 105 437 187 75 67 93 77 146 77 30 0 62 -11 113 -40 166 -91 322 -94 517 -11 118 51 217 119 328 226 161 155 286 348 325 501 19 74 21 219 3 254 -19 38 -56 37 -93 -2z" />
	</g>
</svg>